<?xml version="1.0" encoding="UTF-8" standalone="no"?>
<!-- Created with Inkscape (http://www.inkscape.org/) -->

<svg
   xmlns:dc="http://purl.org/dc/elements/1.1/"
   xmlns:cc="http://creativecommons.org/ns#"
   xmlns:rdf="http://www.w3.org/1999/02/22-rdf-syntax-ns#"
   xmlns:svg="http://www.w3.org/2000/svg"
   xmlns="http://www.w3.org/2000/svg"
   xmlns:sodipodi="http://sodipodi.sourceforge.net/DTD/sodipodi-0.dtd"
   xmlns:inkscape="http://www.inkscape.org/namespaces/inkscape"
   width="210mm"
   height="297mm"
   viewBox="0 0 210 297"
   version="1.1"
   id="svg5203"
   inkscape:version="0.92.2 2405546, 2018-03-11"
   sodipodi:docname="letter-C.svg">
  <defs
     id="defs5197" />
  <sodipodi:namedview
     id="base"
     pagecolor="#ffffff"
     bordercolor="#666666"
     borderopacity="1.0"
     inkscape:pageopacity="0.0"
     inkscape:pageshadow="2"
     inkscape:zoom="0.35"
     inkscape:cx="-134.28571"
     inkscape:cy="560"
     inkscape:document-units="mm"
     inkscape:current-layer="layer1"
     showgrid="false"
     inkscape:window-width="1856"
     inkscape:window-height="960"
     inkscape:window-x="32"
     inkscape:window-y="32"
     inkscape:window-maximized="1" />
  <metadata
     id="metadata5200">
    <rdf:RDF>
      <cc:Work
         rdf:about="">
        <dc:format>image/svg+xml</dc:format>
        <dc:type
           rdf:resource="http://purl.org/dc/dcmitype/StillImage" />
        <dc:title></dc:title>
      </cc:Work>
    </rdf:RDF>
  </metadata>
  <g
     inkscape:label="Layer 1"
     inkscape:groupmode="layer"
     id="layer1">
    <path
       style="fill:none;stroke:#000000;stroke-width:0.26458332px;stroke-linecap:butt;stroke-linejoin:miter;stroke-opacity:1"
       d="m 67.850142,201.74046 c 0.36333,-18.16692 -15.87974,-33.39051 -33.85617,-33.02001 -17.97643,0.37051 -34.20357954,14.84056 -33.85619954,33.02001 l 0.14253,62.50646 c 0,19.52469 18.47981954,32.80457 34.24283954,32.61886 15.76301,-0.18571 33.46484,-13.5667 33.46484,-33.41655 l -11.2947,0.13306 c -0.48455,13.34074 -11.17392,21.90584 -21.64687,22.19774 -10.47296,0.2919 -23.52732,-8.60864 -23.47725,-21.53311 v -63.14864 c 0.95286,-11.99077 11.07217,-21.74243 21.6603,-21.5085 10.58813,0.23393 22.16494,7.18852 23.32519,22.15068 h 11.29549"
       id="path5186"
       inkscape:connector-curvature="0"
       sodipodi:nodetypes="czcczcczcczcc" />
    <path
       style="fill:#000000;fill-opacity:1;stroke:none;stroke-width:2.85714293"
       d="M 110.28571,1118.0334 C 73.838646,1112.197 34.151863,1083.5721 16.443556,1050.3479 2.6220223,1024.4161 1.3452243,1007.7384 2.2901389,865.47432 3.1233306,740.03097 3.2895994,736.73127 9.5510786,721.37683 27.308586,677.83175 65.454134,648.74333 115.05477,640.92355 c 62.52532,-9.85743 131.81294,42.49731 137.37168,103.80006 l 1.51006,16.65322 h -18.66258 c -19.21298,0 -22.08863,-1.79154 -22.15898,-13.80511 -0.0559,-9.55174 -14.07908,-34.59922 -25.66666,-45.84459 -15.21455,-14.76521 -38.45084,-23.60946 -62.3915,-23.74757 -23.95333,-0.1382 -45.465804,10.51894 -61.880341,30.65508 -21.581606,26.47471 -21.790963,28.26818 -20.857132,178.67268 0.804149,129.51758 0.968326,132.91008 6.972157,144.06948 19.641086,36.5074 65.348676,57.5779 102.872336,47.4227 28.68109,-7.7621 54.64557,-35.1486 61.23365,-64.5872 l 3.51185,-15.69261 h 19.36572 19.36571 l -1.49201,10.71431 c -4.10174,29.4551 -16.31696,52.7486 -38.82453,74.0353 -30.21257,28.5738 -67.21627,40.8208 -105.03849,34.7641 z"
       id="path5773"
       inkscape:connector-curvature="0"
       transform="scale(0.26458333)" />
  </g>
</svg>
