<?xml version="1.0" encoding="UTF-8" standalone="no"?>
<!-- Created with Inkscape (http://www.inkscape.org/) -->

<svg
   xmlns:dc="http://purl.org/dc/elements/1.1/"
   xmlns:cc="http://creativecommons.org/ns#"
   xmlns:rdf="http://www.w3.org/1999/02/22-rdf-syntax-ns#"
   xmlns:svg="http://www.w3.org/2000/svg"
   xmlns="http://www.w3.org/2000/svg"
   xmlns:sodipodi="http://sodipodi.sourceforge.net/DTD/sodipodi-0.dtd"
   xmlns:inkscape="http://www.inkscape.org/namespaces/inkscape"
   width="210mm"
   height="297mm"
   viewBox="0 0 210 297"
   version="1.1"
   id="svg4610"
   inkscape:version="0.92.2 2405546, 2018-03-11"
   sodipodi:docname="letter-D.svg">
  <defs
     id="defs4604" />
  <sodipodi:namedview
     id="base"
     pagecolor="#ffffff"
     bordercolor="#666666"
     borderopacity="1.0"
     inkscape:pageopacity="0.0"
     inkscape:pageshadow="2"
     inkscape:zoom="1.1536481"
     inkscape:cx="108.57143"
     inkscape:cy="241.42857"
     inkscape:document-units="mm"
     inkscape:current-layer="layer1"
     showgrid="false"
     inkscape:window-width="1856"
     inkscape:window-height="960"
     inkscape:window-x="32"
     inkscape:window-y="32"
     inkscape:window-maximized="1" />
  <metadata
     id="metadata4607">
    <rdf:RDF>
      <cc:Work
         rdf:about="">
        <dc:format>image/svg+xml</dc:format>
        <dc:type
           rdf:resource="http://purl.org/dc/dcmitype/StillImage" />
        <dc:title></dc:title>
      </cc:Work>
    </rdf:RDF>
  </metadata>
  <g
     inkscape:label="Layer 1"
     inkscape:groupmode="layer"
     id="layer1">
    <path
       style="fill:none;stroke:#000000;stroke-width:0.26458332px;stroke-linecap:butt;stroke-linejoin:miter;stroke-opacity:1"
       d="M 0.13229166,169.02143 H 27.634652 c 12.07451,2.05176 26.60961,11.96856 28.75523,31.20725 v 65.2653 c -0.64186,19.74277 -18.64563,29.41542 -30.80696,31.37373 l -25.45063034,-10e-6 z"
       id="path4590"
       inkscape:connector-curvature="0"
       sodipodi:nodetypes="ccccccc" />
    <path
       style="fill:none;stroke:#000000;stroke-width:0.26458332px;stroke-linecap:butt;stroke-linejoin:miter;stroke-opacity:1"
       d="m 11.407162,179.26876 c 29.239608,0.27083 33.689355,13.57182 33.69383,20.95992 l 0.132,63.35552 c -2.05704,22.06916 -18.822521,24.47091 -33.82583,24.28369 z"
       id="path4592"
       inkscape:connector-curvature="0"
       sodipodi:nodetypes="ccccc" />
    <path
       style="fill:#000000;fill-opacity:1;stroke:none;stroke-width:0.86681545"
       d="M 1.6063988,880.31098 V 639.76969 l 51.7922252,0.006 c 48.086826,0.006 52.288346,0.12521 58.726746,1.67134 44.09084,10.58802 80.3234,44.06723 93.89359,86.75852 6.21146,19.541 5.79019,8.28528 5.79019,154.70581 0,125.40804 -0.0779,132.11094 -1.618,139.12384 -3.24972,14.7983 -9.09787,28.5642 -17.30773,40.7403 -5.33168,7.9076 -18.61039,21.7621 -27.06173,28.2353 -15.47093,11.8498 -36.98595,22.2618 -56.28107,27.2369 l -10.101231,2.6045 H 50.522893 1.6063988 Z M 74.418899,1087.864 c 33.019161,-3.0149 55.887291,-12.2605 71.998861,-29.1091 9.00596,-9.4179 14.7002,-18.9848 19.27605,-32.3855 5.6908,-16.666 5.37501,-7.805 5.37501,-150.82591 V 745.95458 l -1.95754,-6.75378 c -10.25514,-35.38149 -43.25517,-55.64604 -99.768414,-61.26545 -4.937186,-0.49093 -13.031075,-0.8926 -17.986421,-0.8926 h -9.009719 v 205.86868 205.86867 h 11.051898 c 6.078543,0 15.537667,-0.4125 21.020275,-0.9131 z"
       id="path5165"
       inkscape:connector-curvature="0"
       transform="scale(0.26458333)" />
  </g>
</svg>
