<?xml version="1.0" encoding="UTF-8" standalone="no"?>
<!-- Created with Inkscape (http://www.inkscape.org/) -->

<svg
   xmlns:dc="http://purl.org/dc/elements/1.1/"
   xmlns:cc="http://creativecommons.org/ns#"
   xmlns:rdf="http://www.w3.org/1999/02/22-rdf-syntax-ns#"
   xmlns:svg="http://www.w3.org/2000/svg"
   xmlns="http://www.w3.org/2000/svg"
   xmlns:sodipodi="http://sodipodi.sourceforge.net/DTD/sodipodi-0.dtd"
   xmlns:inkscape="http://www.inkscape.org/namespaces/inkscape"
   width="210mm"
   height="297mm"
   viewBox="0 0 210 297"
   version="1.1"
   id="svg10493"
   inkscape:version="0.92.2 2405546, 2018-03-11"
   sodipodi:docname="letter-M.svg">
  <defs
     id="defs10487" />
  <sodipodi:namedview
     id="base"
     pagecolor="#ffffff"
     bordercolor="#666666"
     borderopacity="1.0"
     inkscape:pageopacity="0.0"
     inkscape:pageshadow="2"
     inkscape:zoom="0.35"
     inkscape:cx="-134.28571"
     inkscape:cy="560"
     inkscape:document-units="mm"
     inkscape:current-layer="layer1"
     showgrid="false"
     inkscape:window-width="1856"
     inkscape:window-height="960"
     inkscape:window-x="32"
     inkscape:window-y="32"
     inkscape:window-maximized="1" />
  <metadata
     id="metadata10490">
    <rdf:RDF>
      <cc:Work
         rdf:about="">
        <dc:format>image/svg+xml</dc:format>
        <dc:type
           rdf:resource="http://purl.org/dc/dcmitype/StillImage" />
        <dc:title></dc:title>
      </cc:Work>
    </rdf:RDF>
  </metadata>
  <g
     inkscape:label="Layer 1"
     inkscape:groupmode="layer"
     id="layer1">
    <path
       style="fill:none;stroke:#000000;stroke-width:0.26458332px;stroke-linecap:butt;stroke-linejoin:miter;stroke-opacity:1"
       d="m 0.3976558,168.80976 -0.26509,128.05795 H 11.421426 l 0.12932,-116.64693 22.43139,-0.10747 c 9.40409,0 22.5607,7.39312 22.5607,21.71645 l 0.007,94.42856 h 11.28892 c 0,0 -0.005,-94.32497 3e-5,-94.42856 0,-12.29825 10.2454,-21.59843 23.24114,-21.59843 12.995754,0 22.027674,11.45898 22.027674,21.45101 l -0.14065,94.57598 10.7322,-0.15865 0.55663,-94.26991 c -1e-5,-14.59534 -13.15961,-33.02 -32.688524,-33.02 -21.95567,0 -29.32323,15.20846 -29.32323,15.20846 -4.47765,-7.5807 -15.79527,-15.20846 -28.26139,-15.20846 z"
       id="path9847"
       inkscape:connector-curvature="0"
       sodipodi:nodetypes="ccccccccczcccccccc" />
    <path
       style="fill:#000000;fill-opacity:1;stroke:none;stroke-width:2.85714293"
       d="m 1.7208594,946.37683 c 0.00362,-96.25 0.8518209,-204.89286 1.8849003,-241.42857 l 1.8783269,-66.42857 58.8293844,0.0566 c 32.356163,0.0311 67.829389,1.35209 78.829389,2.93548 33.28453,4.79111 66.93481,23.33045 84.05861,46.31139 l 7.99677,10.73204 8.09878,-11.68653 c 19.14952,-27.63276 58.45367,-45.62287 100.01221,-45.7771 55.17274,-0.20477 99.60557,33.05131 118.29894,88.54169 5.55603,16.49284 5.8204,23.94451 5.8204,164.05884 0,80.72968 -0.84217,164.3417 -1.87151,185.8044 l -1.87152,39.0232 -17.4142,4e-4 -17.4142,4e-4 V 932.09149 745.66254 l -7.94223,-16.17298 c -15.07908,-30.70594 -43.49894,-49.04194 -76.34348,-49.25547 -36.03146,-0.23426 -68.04909,18.61987 -81.8126,48.17673 l -6.70301,14.39458 -0.0279,187.85714 L 256,1118.5197 h -19.92103 -19.92103 l -0.79325,-187.85716 c -0.7785,-184.36062 -0.90569,-188.10016 -6.83351,-200.9139 -7.93441,-17.15121 -24.50907,-33.11706 -43.95975,-42.34505 -14.9081,-7.07285 -18.46265,-7.5034 -69.285716,-8.39223 l -53.571428,-0.9369 v 221.65118 221.65116 h -20 -20.0000003 z"
       id="path11044"
       inkscape:connector-curvature="0"
       transform="scale(0.26458333)" />
  </g>
</svg>
