<?xml version="1.0" encoding="UTF-8" standalone="no"?>
<!-- Created with Inkscape (http://www.inkscape.org/) -->

<svg
   xmlns:dc="http://purl.org/dc/elements/1.1/"
   xmlns:cc="http://creativecommons.org/ns#"
   xmlns:rdf="http://www.w3.org/1999/02/22-rdf-syntax-ns#"
   xmlns:svg="http://www.w3.org/2000/svg"
   xmlns="http://www.w3.org/2000/svg"
   xmlns:sodipodi="http://sodipodi.sourceforge.net/DTD/sodipodi-0.dtd"
   xmlns:inkscape="http://www.inkscape.org/namespaces/inkscape"
   width="210mm"
   height="297mm"
   viewBox="0 0 744.09448819 1052.3622047"
   id="svg5142"
   version="1.1"
   inkscape:version="0.91 r13725"
   sodipodi:docname="letter-k.svg">
  <defs
     id="defs5144" />
  <sodipodi:namedview
     id="base"
     pagecolor="#ffffff"
     bordercolor="#666666"
     borderopacity="1.0"
     inkscape:pageopacity="0.0"
     inkscape:pageshadow="2"
     inkscape:zoom="1.0623047"
     inkscape:cx="222.0307"
     inkscape:cy="256.42214"
     inkscape:document-units="px"
     inkscape:current-layer="layer1"
     showgrid="false"
     inkscape:window-width="1920"
     inkscape:window-height="1044"
     inkscape:window-x="0"
     inkscape:window-y="0"
     inkscape:window-maximized="1" />
  <metadata
     id="metadata5147">
    <rdf:RDF>
      <cc:Work
         rdf:about="">
        <dc:format>image/svg+xml</dc:format>
        <dc:type
           rdf:resource="http://purl.org/dc/dcmitype/StillImage" />
        <dc:title></dc:title>
      </cc:Work>
    </rdf:RDF>
  </metadata>
  <g
     inkscape:label="Layer 1"
     inkscape:groupmode="layer"
     id="layer1">
    <path
       style="fill:none;fill-rule:evenodd;stroke:#000000;stroke-width:1px;stroke-linecap:butt;stroke-linejoin:miter;stroke-opacity:1"
       d="m 0.5,708.8622 0,343 40,0 -0.072,-131.00747 121.6224,-82.02439 0,-48.08326 -121.9759,81.67083 0.4253,-163.55571 -40,0"
       id="path5129"
       inkscape:connector-curvature="0" />
    <path
       style="fill:none;fill-rule:evenodd;stroke:#000000;stroke-width:1px;stroke-linecap:butt;stroke-linejoin:miter;stroke-opacity:1"
       d="m 66.9447,903.53061 24.3952,72.832 29.3449,75.49949 41.3658,0 -73.4588,-202.72437 -37.5216,15.86113 z"
       id="path5131-0"
       inkscape:connector-curvature="0"
       sodipodi:nodetypes="ccccccc" />
    <path
       style="opacity:1;fill:#000001;fill-opacity:1;stroke:none;stroke-width:40;stroke-miterlimit:4;stroke-dasharray:none"
       d="m 1.7549182,880.09671 0,-170.38426 18.8269898,0 18.826991,0 0,81.89741 c 0,45.04357 0.228515,81.89741 0.507811,81.89741 0.279296,0 2.700105,-1.47638 5.379577,-3.28084 2.67947,-1.80446 5.167446,-2.96938 5.528834,-2.58871 0.361387,0.38067 2.992209,6.41082 5.84627,13.40034 2.85406,6.98952 6.055875,14.72702 7.115145,17.19445 l 1.925944,4.48623 -13.127708,8.69266 -13.127709,8.69267 -0.02408,65.18845 -0.02408,65.18848 -18.826991,0 -18.8269898,0 0,-170.38429 z"
       id="path5720"
       inkscape:connector-curvature="0" />
    <path
       style="opacity:1;fill:#000001;fill-opacity:1;stroke:none;stroke-width:40;stroke-miterlimit:4;stroke-dasharray:none"
       d="m 59.798958,883.69095 c -4.033876,-9.84781 -7.200709,-18.02948 -7.037406,-18.18149 0.996289,-0.9274 34.799457,-14.76508 35.168103,-14.39643 0.710406,0.7104 10.990964,29.10076 10.633278,29.36441 -0.923536,0.68074 -29.647402,20.04388 -30.46559,20.53726 -0.56526,0.34086 -3.998052,-6.82545 -8.298385,-17.32375 z"
       id="path5722"
       inkscape:connector-curvature="0" />
    <path
       style="opacity:1;fill:#000001;fill-opacity:1;stroke:none;stroke-width:40;stroke-miterlimit:4;stroke-dasharray:none"
       d="m 100.12952,878.04645 c -0.25301,-0.68445 -2.756534,-7.52674 -5.563383,-15.20508 -2.80685,-7.67834 -5.290997,-14.14825 -5.520328,-14.37759 -0.22933,-0.22933 -5.416628,1.72378 -11.527328,4.34025 -6.110699,2.61647 -11.494837,4.62906 -11.96475,4.47242 -0.770946,-0.25698 93.650999,-63.78389 94.803899,-63.78389 0.26694,0 0.48536,10.14046 0.48536,22.53436 l 0,22.53436 -17.17963,11.51418 c -9.4488,6.3328 -23.00582,15.49697 -30.12672,20.36482 -8.80366,6.01819 -13.09431,8.45238 -13.40712,7.60617 z"
       id="path5724"
       inkscape:connector-curvature="0" />
    <path
       style="opacity:1;fill:#000001;fill-opacity:1;stroke:none;stroke-width:40;stroke-miterlimit:4;stroke-dasharray:none"
       d="M 120.42887,1048.3629 C 100.89466,998.56463 89.195256,967.01494 79.936052,939.16631 73.609869,920.13923 68.57509,904.15734 68.747654,903.65098 c 0.172565,-0.50636 7.173664,-5.52606 15.557997,-11.1549 l 15.244243,-10.23425 3.298886,9.03695 c 20.2258,55.4065 57.05286,157.57292 57.05286,158.27732 0,0.5495 -7.5872,0.9049 -19.32097,0.9049 -19.16281,0 -19.32776,-0.017 -20.1518,-2.1181 z"
       id="path5726"
       inkscape:connector-curvature="0" />
  </g>
</svg>
