<?xml version="1.0" encoding="UTF-8" standalone="no"?>
<!-- Created with Inkscape (http://www.inkscape.org/) -->

<svg
   xmlns:dc="http://purl.org/dc/elements/1.1/"
   xmlns:cc="http://creativecommons.org/ns#"
   xmlns:rdf="http://www.w3.org/1999/02/22-rdf-syntax-ns#"
   xmlns:svg="http://www.w3.org/2000/svg"
   xmlns="http://www.w3.org/2000/svg"
   xmlns:sodipodi="http://sodipodi.sourceforge.net/DTD/sodipodi-0.dtd"
   xmlns:inkscape="http://www.inkscape.org/namespaces/inkscape"
   width="210mm"
   height="297mm"
   viewBox="0 0 744.09448819 1052.3622047"
   id="svg7057"
   version="1.1"
   inkscape:version="0.91 r13725"
   sodipodi:docname="letter-F.svg">
  <defs
     id="defs7059" />
  <sodipodi:namedview
     id="base"
     pagecolor="#ffffff"
     bordercolor="#666666"
     borderopacity="1.0"
     inkscape:pageopacity="0.0"
     inkscape:pageshadow="2"
     inkscape:zoom="1.0623047"
     inkscape:cx="222.0307"
     inkscape:cy="407.03806"
     inkscape:document-units="px"
     inkscape:current-layer="layer1"
     showgrid="false"
     inkscape:window-width="1920"
     inkscape:window-height="1044"
     inkscape:window-x="0"
     inkscape:window-y="0"
     inkscape:window-maximized="1" />
  <metadata
     id="metadata7062">
    <rdf:RDF>
      <cc:Work
         rdf:about="">
        <dc:format>image/svg+xml</dc:format>
        <dc:type
           rdf:resource="http://purl.org/dc/dcmitype/StillImage" />
        <dc:title></dc:title>
      </cc:Work>
    </rdf:RDF>
  </metadata>
  <g
     inkscape:label="Layer 1"
     inkscape:groupmode="layer"
     id="layer1">
    <path
       style="fill:none;fill-rule:evenodd;stroke:#000000;stroke-width:1px;stroke-linecap:butt;stroke-linejoin:miter;stroke-opacity:1"
       d="m 0.5,598.51494 192.4897,0 0,41 -152.7893,-0.16995 0.6336,171.07234 77.7124,-10e-6 0,41 -78.9795,-0.47227 0.9331,200.91715 -40,0 0,-453.34726 z"
       id="path7046"
       inkscape:connector-curvature="0" />
    <path
       style="opacity:1;fill:#000001;fill-opacity:1;stroke:none;stroke-width:40;stroke-miterlimit:4;stroke-dasharray:none"
       d="m 1.7549182,825.02777 0,-225.45321 95.0763008,0 95.076301,0 0,19.29766 0,19.29767 -76.24931,0 -76.249311,0 0.0082,81.66207 c 0.0045,44.91414 0.275309,83.88601 0.601797,86.60416 l 0.593614,4.94208 38.464208,0 38.464213,0 5.2e-4,19.533 5e-4,19.53301 -39.536576,-0.29164 -39.536572,-0.29164 0.625482,100.31002 0.625483,100.31005 -18.98242,0 -18.9824188,0 0,-225.45323 z"
       id="path7611"
       inkscape:connector-curvature="0" />
  </g>
</svg>
