<?xml version="1.0" encoding="UTF-8" standalone="no"?>
<!-- Created with Inkscape (http://www.inkscape.org/) -->

<svg
   xmlns:dc="http://purl.org/dc/elements/1.1/"
   xmlns:cc="http://creativecommons.org/ns#"
   xmlns:rdf="http://www.w3.org/1999/02/22-rdf-syntax-ns#"
   xmlns:svg="http://www.w3.org/2000/svg"
   xmlns="http://www.w3.org/2000/svg"
   xmlns:sodipodi="http://sodipodi.sourceforge.net/DTD/sodipodi-0.dtd"
   xmlns:inkscape="http://www.inkscape.org/namespaces/inkscape"
   width="210mm"
   height="297mm"
   viewBox="0 0 744.09448819 1052.3622047"
   id="svg6419"
   version="1.1"
   inkscape:version="0.92.2 2405546, 2018-03-11"
   sodipodi:docname="letter-u.svg">
  <defs
     id="defs6421" />
  <sodipodi:namedview
     id="base"
     pagecolor="#ffffff"
     bordercolor="#666666"
     borderopacity="1.0"
     inkscape:pageopacity="0.0"
     inkscape:pageshadow="2"
     inkscape:zoom="1.0623047"
     inkscape:cx="45.998343"
     inkscape:cy="177.84712"
     inkscape:document-units="px"
     inkscape:current-layer="layer1"
     showgrid="false"
     showborder="false"
     inkscape:window-width="1856"
     inkscape:window-height="960"
     inkscape:window-x="32"
     inkscape:window-y="32"
     inkscape:window-maximized="1" />
  <metadata
     id="metadata6424">
    <rdf:RDF>
      <cc:Work
         rdf:about="">
        <dc:format>image/svg+xml</dc:format>
        <dc:type
           rdf:resource="http://purl.org/dc/dcmitype/StillImage" />
        <dc:title></dc:title>
      </cc:Work>
    </rdf:RDF>
  </metadata>
  <g
     inkscape:label="Layer 1"
     inkscape:groupmode="layer"
     id="layer1">
    <path
       style="fill:none;stroke:#000000;stroke-width:0.9375px;stroke-linecap:butt;stroke-linejoin:miter;stroke-opacity:1"
       d="m 0.46875,810.44857 v 123.0357 c 0,74.68633 68.1079,117.00003 119.9629,117.00003 51.855,0 80.04251,-31.25 80.04251,-31.25 l -0.08,32.6592 h 39.99999 V 810.44857 h -40.00002 l -0.023,123.03571 c -5.1591,59.12372 -43.884,76.15762 -80.52199,77.31252 -36.63801,1.1549 -79.35691,-31.37131 -79.35691,-77.31252 l -0.024,-123.03571 z"
       id="path8426"
       inkscape:connector-curvature="0"
       sodipodi:nodetypes="cczcccccczccc" />
    <path
       style="fill:#000000;fill-opacity:1;stroke:none;stroke-width:0.94134951"
       d="m 215.06471,1103.3841 c 0,-9.8371 -0.3177,-17.8717 -0.70601,-17.8547 -0.38831,0.017 -2.40044,1.7279 -4.47141,3.8018 -11.85855,11.8757 -34.65319,23.1655 -56.22852,27.8491 -10.86596,2.3588 -36.71065,2.4009 -47.46988,0.077 -27.091364,-5.8506 -50.405403,-18.513 -69.55019,-37.7744 C 18.985047,1061.7221 9.4516302,1044.4263 3.633403,1019.604 2.1461848,1013.2591 1.9433232,1005.0819 1.6308682,938.88327 L 1.283193,865.22267 h 20.227664 20.227664 l 0.340792,70.83655 c 0.334849,69.60108 0.37701,70.96788 2.417369,78.36738 8.01576,29.0695 29.701814,51.4142 59.488788,61.2957 7.52482,2.4963 8.92674,2.6507 23.53374,2.5918 13.69704,-0.055 16.64358,-0.3578 24.93775,-2.5613 31.14319,-8.2739 50.19444,-27.2881 58.34887,-58.2353 3.94259,-14.9627 4.25888,-21.53489 4.25888,-88.49371 v -63.80112 h 20.23902 20.23901 v 128.02353 128.0235 h -20.23901 -20.23902 z"
       id="path8443"
       inkscape:connector-curvature="0"
       transform="scale(0.9375)" />
  </g>
</svg>
