<?xml version="1.0" encoding="UTF-8" standalone="no"?>
<!-- Created with Inkscape (http://www.inkscape.org/) -->

<svg
   xmlns:dc="http://purl.org/dc/elements/1.1/"
   xmlns:cc="http://creativecommons.org/ns#"
   xmlns:rdf="http://www.w3.org/1999/02/22-rdf-syntax-ns#"
   xmlns:svg="http://www.w3.org/2000/svg"
   xmlns="http://www.w3.org/2000/svg"
   xmlns:sodipodi="http://sodipodi.sourceforge.net/DTD/sodipodi-0.dtd"
   xmlns:inkscape="http://www.inkscape.org/namespaces/inkscape"
   width="210mm"
   height="297mm"
   viewBox="0 0 744.09448819 1052.3622047"
   id="svg8880"
   version="1.1"
   inkscape:version="0.91 r13725"
   sodipodi:docname="letter-I.svg">
  <defs
     id="defs8882" />
  <sodipodi:namedview
     id="base"
     pagecolor="#ffffff"
     bordercolor="#666666"
     borderopacity="1.0"
     inkscape:pageopacity="0.0"
     inkscape:pageshadow="2"
     inkscape:zoom="1.0623047"
     inkscape:cx="222.0307"
     inkscape:cy="181.11418"
     inkscape:document-units="px"
     inkscape:current-layer="layer1"
     showgrid="false"
     inkscape:window-width="1920"
     inkscape:window-height="1044"
     inkscape:window-x="0"
     inkscape:window-y="0"
     inkscape:window-maximized="1" />
  <metadata
     id="metadata8885">
    <rdf:RDF>
      <cc:Work
         rdf:about="">
        <dc:format>image/svg+xml</dc:format>
        <dc:type
           rdf:resource="http://purl.org/dc/dcmitype/StillImage" />
        <dc:title></dc:title>
      </cc:Work>
    </rdf:RDF>
  </metadata>
  <g
     inkscape:label="Layer 1"
     inkscape:groupmode="layer"
     id="layer1">
    <path
       style="fill:none;fill-rule:evenodd;stroke:#000000;stroke-width:1px;stroke-linecap:butt;stroke-linejoin:miter;stroke-opacity:1"
       d="m 0.9219,598.51487 118.3667,0 0,41 -37.3454,-0.16994 -0.6335,371.88397 37.557,-0.3667 0,41 -118.3667,0 0,-41 40.2636,-0.2669 0,-370.51744 -39.8417,-0.56299 z"
       id="path8860"
       inkscape:connector-curvature="0"
       sodipodi:nodetypes="ccccccccccccc" />
    <path
       style="opacity:1;fill:#000001;fill-opacity:1;stroke:none;stroke-width:40;stroke-miterlimit:4;stroke-dasharray:none"
       d="m 1.7549182,1031.1833 0,-19.2977 19.7683398,0 19.76834,0 0,-186.38716 0,-186.3872 -16.826623,0 c -9.254642,0 -18.1503951,-0.26476 -19.7683396,-0.58834 l -2.9417172,-0.58835 0,-19.17999 0,-19.18 58.3636698,0 58.363672,0 0,19.29766 0,19.29767 -18.826992,0 -18.826991,0 0,186.85788 0,186.85783 18.356316,0 18.356317,0 0,19.2977 0,19.2977 -57.892997,0 -57.8929948,0 0,-19.2977 z"
       id="path9434"
       inkscape:connector-curvature="0" />
  </g>
</svg>
