<?xml version="1.0" encoding="UTF-8" standalone="no"?>
<!-- Created with Inkscape (http://www.inkscape.org/) -->

<svg
   xmlns:dc="http://purl.org/dc/elements/1.1/"
   xmlns:cc="http://creativecommons.org/ns#"
   xmlns:rdf="http://www.w3.org/1999/02/22-rdf-syntax-ns#"
   xmlns:svg="http://www.w3.org/2000/svg"
   xmlns="http://www.w3.org/2000/svg"
   xmlns:sodipodi="http://sodipodi.sourceforge.net/DTD/sodipodi-0.dtd"
   xmlns:inkscape="http://www.inkscape.org/namespaces/inkscape"
   width="210mm"
   height="297mm"
   viewBox="0 0 744.09448819 1052.3622047"
   id="svg6450"
   version="1.1"
   inkscape:version="0.91 r13725"
   sodipodi:docname="letter-E.svg">
  <defs
     id="defs6452" />
  <sodipodi:namedview
     id="base"
     pagecolor="#ffffff"
     bordercolor="#666666"
     borderopacity="1.0"
     inkscape:pageopacity="0.0"
     inkscape:pageshadow="2"
     inkscape:zoom="1.0623047"
     inkscape:cx="222.0307"
     inkscape:cy="369.38408"
     inkscape:document-units="px"
     inkscape:current-layer="layer1"
     showgrid="false"
     inkscape:window-width="1920"
     inkscape:window-height="1044"
     inkscape:window-x="0"
     inkscape:window-y="0"
     inkscape:window-maximized="1" />
  <metadata
     id="metadata6455">
    <rdf:RDF>
      <cc:Work
         rdf:about="">
        <dc:format>image/svg+xml</dc:format>
        <dc:type
           rdf:resource="http://purl.org/dc/dcmitype/StillImage" />
        <dc:title></dc:title>
      </cc:Work>
    </rdf:RDF>
  </metadata>
  <g
     inkscape:label="Layer 1"
     inkscape:groupmode="layer"
     id="layer1">
    <path
       style="fill:none;fill-rule:evenodd;stroke:#000000;stroke-width:1px;stroke-linecap:butt;stroke-linejoin:miter;stroke-opacity:1"
       d="m 0.5,598.51493 0,453.34727 193.7568,0 0,-41 -153.4839,0.3667 -0.6335,-159.65031 149.3625,-0.16127 0,-41 -148.729,10e-6 -0.6335,-170.43881 152.8503,-0.46359 0,-41 -192.4897,0 z"
       id="path6439"
       inkscape:connector-curvature="0" />
    <path
       style="opacity:1;fill:#000001;fill-opacity:1;stroke:none;stroke-width:40;stroke-miterlimit:4;stroke-dasharray:none"
       d="m 1.7549182,825.02777 0,-225.45321 95.0763008,0 95.076301,0 0,19.15029 0,19.15028 -14.82626,0.61492 c -8.15444,0.33821 -42.46662,0.61633 -76.24931,0.61805 l -61.423051,0.003 0,86.13348 0,86.13348 74.366611,0 74.36661,0 0,19.76834 0,19.76834 -74.36661,0 -74.366611,0 0,80.48538 0,80.48534 77.190661,0 77.19066,0 0,19.2977 0,19.2977 -96.017652,0 -96.0176498,0 0,-225.45323 z"
       id="path7004"
       inkscape:connector-curvature="0" />
  </g>
</svg>
