<?xml version="1.0" encoding="UTF-8" standalone="no"?>
<!-- Created with Inkscape (http://www.inkscape.org/) -->

<svg
   xmlns:dc="http://purl.org/dc/elements/1.1/"
   xmlns:cc="http://creativecommons.org/ns#"
   xmlns:rdf="http://www.w3.org/1999/02/22-rdf-syntax-ns#"
   xmlns:svg="http://www.w3.org/2000/svg"
   xmlns="http://www.w3.org/2000/svg"
   xmlns:sodipodi="http://sodipodi.sourceforge.net/DTD/sodipodi-0.dtd"
   xmlns:inkscape="http://www.inkscape.org/namespaces/inkscape"
   width="210mm"
   height="297mm"
   viewBox="0 0 210 297"
   version="1.1"
   id="svg6543"
   inkscape:version="0.92.2 2405546, 2018-03-11"
   sodipodi:docname="letter-W.svg">
  <defs
     id="defs6537" />
  <sodipodi:namedview
     id="base"
     pagecolor="#ffffff"
     bordercolor="#666666"
     borderopacity="1.0"
     inkscape:pageopacity="0.0"
     inkscape:pageshadow="2"
     inkscape:zoom="0.35"
     inkscape:cx="-134.28571"
     inkscape:cy="560"
     inkscape:document-units="mm"
     inkscape:current-layer="layer1"
     showgrid="false"
     inkscape:window-width="1856"
     inkscape:window-height="960"
     inkscape:window-x="32"
     inkscape:window-y="32"
     inkscape:window-maximized="1" />
  <metadata
     id="metadata6540">
    <rdf:RDF>
      <cc:Work
         rdf:about="">
        <dc:format>image/svg+xml</dc:format>
        <dc:type
           rdf:resource="http://purl.org/dc/dcmitype/StillImage" />
        <dc:title></dc:title>
      </cc:Work>
    </rdf:RDF>
  </metadata>
  <g
     inkscape:label="Layer 1"
     inkscape:groupmode="layer"
     id="layer1">
    <path
       style="fill:none;stroke:#000000;stroke-width:0.26458332px;stroke-linecap:butt;stroke-linejoin:miter;stroke-opacity:1"
       d="m 0.13829166,169.41913 -0.006,94.42857 c 0,17.59166 14.59281034,33.02 33.85617034,33.02 19.26336,0 28.26427,-15.23504 28.26427,-15.23504 0,0 11.01629,15.23504 28.15266,15.23504 17.136368,0 22.366928,-8.781 22.366928,-8.781 l 0.20049,8.78101 H 124.2617 V 169.41913 h -11.28889 l -0.006,94.42857 c -1.2111,16.36928 -12.5095,21.56836 -22.953468,21.56836 -10.44398,0 -22.16791,-8.92335 -22.16791,-21.56836 l -5.2e-4,-94.42857 h -11.28889 l -0.007,94.42857 c 0,11.53152 -11.43768,21.63626 -21.89303,21.79091 -10.45534,0.15466 -23.22835,-7.37032 -23.22835,-21.79092 V 169.41913 H 0.13875166"
       id="path6526"
       inkscape:connector-curvature="0"
       sodipodi:nodetypes="cczczcccccczcccczccc" />
    <path
       style="fill:#000000;fill-opacity:1;stroke:none;stroke-width:2.85714293"
       d="M 108.85714,1118.1359 C 58.751611,1111.1643 13.958973,1068.5002 4.6113866,1018.844 2.8457511,1009.4646 1.7142857,932.74923 1.7142857,822.41543 v -181.0386 h 20.0000003 20 v 185.20532 c 0,207.32175 -0.597835,200.71615 20.31618,224.47575 23.270125,26.4363 62.649884,36.7801 94.389804,24.7932 21.35365,-8.0644 40.22524,-25.1128 50.13359,-45.2902 l 8.01757,-16.3269 0.7938,-186.4286 0.79381,-186.42857 H 236.07952 256 v 188.01044 188.01043 l 7.39505,14.84 c 14.38057,28.858 44.27506,47.265 76.89066,47.3441 36.89,0.089 61.55195,-13.1533 77.23892,-41.4748 L 426,1022.8054 l 0.79217,-190.71429 0.7922,-190.71428 h 19.92209 19.92211 v 240 239.99997 h -20 -20 v -17.4388 -17.4388 l -10.56911,9.2798 c -14.24723,12.5092 -30.36726,19.2265 -54.27669,22.6175 -40.36808,5.7252 -75.22386,-6.5672 -109.01787,-38.4467 -11.23213,-10.5958 -20.42204,-18.0537 -20.42204,-16.5731 0,4.7172 -25.28271,29.2802 -39.31687,38.1977 -23.19295,14.7371 -54.38517,20.8169 -84.96885,16.5615 z"
       id="path7094"
       inkscape:connector-curvature="0"
       transform="scale(0.26458333)" />
  </g>
</svg>
