<?xml version="1.0" encoding="UTF-8" standalone="no"?>
<!-- Created with Inkscape (http://www.inkscape.org/) -->

<svg
   xmlns:dc="http://purl.org/dc/elements/1.1/"
   xmlns:cc="http://creativecommons.org/ns#"
   xmlns:rdf="http://www.w3.org/1999/02/22-rdf-syntax-ns#"
   xmlns:svg="http://www.w3.org/2000/svg"
   xmlns="http://www.w3.org/2000/svg"
   xmlns:sodipodi="http://sodipodi.sourceforge.net/DTD/sodipodi-0.dtd"
   xmlns:inkscape="http://www.inkscape.org/namespaces/inkscape"
   width="210mm"
   height="297mm"
   viewBox="0 0 744.09448819 1052.3622047"
   id="svg5135"
   version="1.1"
   inkscape:version="0.91 r13725"
   sodipodi:docname="letter-B.svg">
  <defs
     id="defs5137" />
  <sodipodi:namedview
     id="base"
     pagecolor="#ffffff"
     bordercolor="#666666"
     borderopacity="1.0"
     inkscape:pageopacity="0.0"
     inkscape:pageshadow="2"
     inkscape:zoom="1.0623047"
     inkscape:cx="222.0307"
     inkscape:cy="256.42214"
     inkscape:document-units="px"
     inkscape:current-layer="layer1"
     showgrid="false"
     inkscape:window-width="1920"
     inkscape:window-height="1044"
     inkscape:window-x="0"
     inkscape:window-y="0"
     inkscape:window-maximized="1" />
  <metadata
     id="metadata5140">
    <rdf:RDF>
      <cc:Work
         rdf:about="">
        <dc:format>image/svg+xml</dc:format>
        <dc:type
           rdf:resource="http://purl.org/dc/dcmitype/StillImage" />
        <dc:title></dc:title>
      </cc:Work>
    </rdf:RDF>
  </metadata>
  <g
     inkscape:label="Layer 1"
     inkscape:groupmode="layer"
     id="layer1">
    <path
       style="fill:none;fill-rule:evenodd;stroke:#000000;stroke-width:1px;stroke-linecap:butt;stroke-linejoin:miter;stroke-opacity:1"
       d="m 0.50037182,598.51487 0.337,453.34733 40.00000018,0 0.7878,-32.0014 c 0,0 35.6013,28.0014 76.499098,28.0014 40.8978,0 118.4118,-27.8625 120.0748,-114.40922 2.0461,-106.48339 -84.3198,-123.03571 -119.2433,-123.03571 -34.923498,0 38.8396,-4.17477 38.5446,-91.9395 -0.295,-87.76473 -76.999998,-119.9629 -116.999998,-119.9629 z"
       id="path5118"
       inkscape:connector-curvature="0"
       sodipodi:nodetypes="cccczssssc" />
    <path
       style="fill:none;fill-rule:evenodd;stroke:#000000;stroke-width:1px;stroke-linecap:butt;stroke-linejoin:miter;stroke-opacity:1"
       d="m 40.500372,798.41727 0,-159.8789 c 0,0 78.012698,8.49974 77.623898,78.90208 -0.3888,70.40234 -77.623898,80.97682 -77.623898,80.97682 z"
       id="path5120"
       inkscape:connector-curvature="0"
       sodipodi:nodetypes="cczc" />
    <path
       style="fill:none;fill-rule:evenodd;stroke:#000000;stroke-width:1px;stroke-linecap:butt;stroke-linejoin:miter;stroke-opacity:1"
       d="m 40.500372,931.51485 c -2.3209,-78.34534 74.297898,-80.45107 74.297898,-80.45107 0,0 87.474,-1.54998 85.6457,78.3892 -1.8283,79.93922 -74.0046,80.42962 -74.0046,80.42962 0,0 -83.618098,-0.022 -85.938998,-78.36775 z"
       id="path5122"
       inkscape:connector-curvature="0"
       sodipodi:nodetypes="zczcz" />
    <path
       style="opacity:1;fill:#000001;fill-opacity:1;stroke:none;stroke-width:40;stroke-miterlimit:4;stroke-dasharray:none"
       d="m 1.7549182,825.02777 0,-225.45321 23.5003598,0 c 25.672522,0 34.574432,1.09385 49.397936,6.06994 43.300076,14.53535 72.849406,48.36834 80.096226,91.70747 2.43297,14.55019 1.57758,39.50256 -1.7952,52.36784 -5.90419,22.52118 -18.73345,41.03969 -37.1482,53.62194 -9.84468,6.72656 -9.25821,7.42106 6.92303,8.19823 33.92559,1.62942 61.48963,12.41863 82.03909,32.11202 17.17991,16.46422 26.97353,36.67696 30.99292,63.9653 1.8797,12.7617 1.35482,38.71167 -0.99515,49.1994 -7.77556,34.70175 -28.53201,60.5792 -61.21473,76.3176 -18.13402,8.7324 -32.94322,12.5759 -51.30354,13.3151 -8.40551,0.3384 -14.2226,0.046 -20.36346,-1.0229 -16.854965,-2.9342 -37.226852,-11.3136 -52.866369,-21.7449 -4.293318,-2.8636 -7.999882,-5.2065 -8.236808,-5.2065 -0.236926,0 -0.430775,7.2013 -0.430775,16.0029 l 0,16.003 -19.297665,0 -19.2976648,0 0,-225.45323 z M 143.47878,1008.1414 c 4.11401,-1.0335 11.92359,-4.0699 17.3546,-6.7476 8.45906,-4.17066 11.02882,-6.02789 17.92657,-12.95596 12.3766,-12.43103 18.76359,-26.28464 21.70329,-47.07521 1.50432,-10.63909 0.59221,-27.71668 -1.96499,-36.79083 -8.6015,-30.52206 -33.48454,-48.78212 -73.26392,-53.76369 -10.42016,-1.30492 -20.56288,-0.19785 -32.517464,3.54924 -26.980834,8.45696 -44.278712,26.0925 -50.638,51.62648 -2.71402,10.8974 -2.95382,33.02192 -0.467841,43.1641 7.388463,30.14311 27.963913,49.82799 60.737605,58.10867 16.13214,4.076 27.45631,4.3196 41.13015,0.8848 z M 50.292465,797.18791 c 32.694773,-8.54366 56.252675,-28.45804 64.805955,-54.78291 6.7213,-20.68647 4.22815,-46.7911 -6.15649,-64.46207 -4.71517,-8.02352 -17.757996,-20.60314 -26.701628,-25.75333 -12.115459,-6.97668 -25.4236,-11.78293 -39.772017,-14.36371 l -3.059386,-0.55028 0,80.93252 c 0,77.50043 0.07232,80.93253 1.705408,80.93253 0.937975,0 5.068146,-0.87874 9.178158,-1.95275 z"
       id="path5705"
       inkscape:connector-curvature="0" />
  </g>
</svg>
