<?xml version="1.0" encoding="UTF-8" standalone="no"?>
<!-- Created with Inkscape (http://www.inkscape.org/) -->

<svg
   xmlns:dc="http://purl.org/dc/elements/1.1/"
   xmlns:cc="http://creativecommons.org/ns#"
   xmlns:rdf="http://www.w3.org/1999/02/22-rdf-syntax-ns#"
   xmlns:svg="http://www.w3.org/2000/svg"
   xmlns="http://www.w3.org/2000/svg"
   xmlns:sodipodi="http://sodipodi.sourceforge.net/DTD/sodipodi-0.dtd"
   xmlns:inkscape="http://www.inkscape.org/namespaces/inkscape"
   width="210mm"
   height="297mm"
   viewBox="0 0 210 297"
   version="1.1"
   id="svg7285"
   inkscape:version="0.92.2 2405546, 2018-03-11"
   sodipodi:docname="letter-S.svg">
  <defs
     id="defs7279" />
  <sodipodi:namedview
     id="base"
     pagecolor="#ffffff"
     bordercolor="#666666"
     borderopacity="1.0"
     inkscape:pageopacity="0.0"
     inkscape:pageshadow="2"
     inkscape:zoom="0.35"
     inkscape:cx="-134.28571"
     inkscape:cy="560"
     inkscape:document-units="mm"
     inkscape:current-layer="layer1"
     showgrid="false"
     inkscape:window-width="1856"
     inkscape:window-height="960"
     inkscape:window-x="32"
     inkscape:window-y="32"
     inkscape:window-maximized="1" />
  <metadata
     id="metadata7282">
    <rdf:RDF>
      <cc:Work
         rdf:about="">
        <dc:format>image/svg+xml</dc:format>
        <dc:type
           rdf:resource="http://purl.org/dc/dcmitype/StillImage" />
        <dc:title></dc:title>
      </cc:Work>
    </rdf:RDF>
  </metadata>
  <g
     inkscape:label="Layer 1"
     inkscape:groupmode="layer"
     id="layer1">
    <path
       style="fill:none;stroke:#000000;stroke-width:0.26458332px;stroke-linecap:butt;stroke-linejoin:miter;stroke-opacity:1"
       d="m 56.229941,202.13083 11.294618,-0.14087 c 0.06782,-16.19002 -14.067875,-33.19228 -34.794474,-32.59522 -20.726598,0.59705 -32.80015007,17.83211 -32.59522807,34.26533 0.204921,16.43321 15.49964507,33.44186 33.43960907,33.44186 17.939965,0 24.39117,11.73446 23.341529,26.72137 -1.049642,14.98691 -13.538738,21.50234 -22.782784,21.50234 -9.244049,0 -22.338597,-7.03512 -22.338597,-21.50234 H 0.49909293 c 2.39818297,30.08376 27.66187107,32.6223 33.85619807,33.02 6.194325,0.39771 30.596303,-3.83607 34.38542,-33.02 0,-24.3381 -14.212824,-38.01604 -35.307101,-38.01604 -22.581731,-2.46199 -22.32155,-23.11375 -22.32155,-23.11375 0.01101,-1.02389 2.37188,-22.00413 21.758855,-22.00413 22.515746,0.35904 23.359026,21.44145 23.359026,21.44145"
       id="path7268"
       inkscape:connector-curvature="0"
       sodipodi:nodetypes="cczzzzzcczccscc" />
    <path
       style="fill:#000000;fill-opacity:1;stroke:none;stroke-width:2.85714293"
       d="m 120.28571,1119.4128 c -44.350416,-6.0322 -83.160453,-30.5065 -99.480096,-62.7338 -8.074387,-15.9449 -16.2341854,-41.848 -16.2341854,-51.535 0,-6.24623 1.0568511,-6.62431 18.5169944,-6.62431 17.90184,0 18.570951,0.26114 20.141228,7.85711 4.256695,20.5915 9.152109,30.999 20.537675,43.6625 43.655814,48.5558 124.074924,34.6824 146.655994,-25.3001 5.14187,-13.6585 5.92611,-20.7309 4.96671,-44.79094 -0.95381,-23.91957 -2.36958,-30.95306 -8.69563,-43.19926 -8.23825,-15.94791 -21.08017,-28.29109 -35.89093,-34.49702 -5.21523,-2.18527 -24.17875,-5.6707 -42.14115,-7.7454 C 88.0573,889.81658 66.025717,879.97397 41.714286,855.66254 11.699737,825.64799 -1.9237552,786.90658 4.2947817,749.25191 15.761306,679.81947 79.444077,632.58081 146.58207,643.70594 c 35.83633,5.93827 69.12166,27.82666 88.22898,58.01925 8.55732,13.52193 18.33181,41.65525 18.33181,52.76334 0,6.62361 -0.76852,6.8883 -20,6.8883 -17.44339,0 -20,-0.6654 -20,-5.20532 0,-11.84276 -9.8858,-32.78141 -21.66011,-45.87728 -15.35603,-17.0796 -33.04351,-25.78068 -56.94356,-28.0125 -42.657256,-3.9834 -71.463259,14.63215 -87.564907,56.58781 -15.735614,41.0019 4.090817,88.55071 44.66922,107.12811 9.487187,4.34338 24.482417,7.75219 42.169597,9.58626 46.06483,4.77668 76.36217,19.82229 96.47479,47.90924 14.16819,19.78565 21.47162,39.13254 25.70695,68.09814 2.77259,18.96188 2.58275,25.81482 -1.16249,41.96401 -8.36801,36.0822 -26.73162,64.5136 -53.61698,83.0124 -23.98282,16.5017 -57.66432,26.0094 -80.92966,22.8451 z"
       id="path7836"
       inkscape:connector-curvature="0"
       transform="scale(0.26458333)" />
  </g>
</svg>
