<?xml version="1.0" encoding="UTF-8" standalone="no"?>
<!-- Created with Inkscape (http://www.inkscape.org/) -->

<svg
   xmlns:dc="http://purl.org/dc/elements/1.1/"
   xmlns:cc="http://creativecommons.org/ns#"
   xmlns:rdf="http://www.w3.org/1999/02/22-rdf-syntax-ns#"
   xmlns:svg="http://www.w3.org/2000/svg"
   xmlns="http://www.w3.org/2000/svg"
   xmlns:sodipodi="http://sodipodi.sourceforge.net/DTD/sodipodi-0.dtd"
   xmlns:inkscape="http://www.inkscape.org/namespaces/inkscape"
   width="210mm"
   height="297mm"
   viewBox="0 0 744.09448819 1052.3622047"
   id="svg9963"
   version="1.1"
   inkscape:version="0.91 r13725"
   sodipodi:docname="letter-z.svg">
  <defs
     id="defs9965" />
  <sodipodi:namedview
     id="base"
     pagecolor="#ffffff"
     bordercolor="#666666"
     borderopacity="1.0"
     inkscape:pageopacity="0.0"
     inkscape:pageshadow="2"
     inkscape:zoom="1.0623047"
     inkscape:cx="222.0307"
     inkscape:cy="105.80621"
     inkscape:document-units="px"
     inkscape:current-layer="layer1"
     showgrid="false"
     showborder="false"
     inkscape:window-width="1920"
     inkscape:window-height="1044"
     inkscape:window-x="0"
     inkscape:window-y="0"
     inkscape:window-maximized="1" />
  <metadata
     id="metadata9968">
    <rdf:RDF>
      <cc:Work
         rdf:about="">
        <dc:format>image/svg+xml</dc:format>
        <dc:type
           rdf:resource="http://purl.org/dc/dcmitype/StillImage" />
        <dc:title></dc:title>
      </cc:Work>
    </rdf:RDF>
  </metadata>
  <g
     inkscape:label="Layer 1"
     inkscape:groupmode="layer"
     id="layer1">
    <path
       style="fill:none;fill-rule:evenodd;stroke:#000000;stroke-width:1px;stroke-linecap:butt;stroke-linejoin:miter;stroke-opacity:1"
       d="m 53.116936,829.81808 116.727304,0 0.2477,39.41938 -117.749004,140.73174 116.560004,1.412 0,39.5367 -168.38430426,0.9414 1.41199996,-38.7937 112.0206043,-143.73114 -60.834304,0.006 0,-39.52221"
       id="path9952"
       inkscape:connector-curvature="0" />
    <path
       style="opacity:1;fill:#000000;stroke:none;stroke-width:40;stroke-miterlimit:4;stroke-dasharray:none"
       d="m 2.1962258,1031.9542 0.6911086,-18.5267 56.1970386,-72.07815 56.197047,-72.07815 -30.405468,-0.2482 -30.405461,-0.24821 0,-18.81412 0,-18.81413 57.422319,0 57.42232,0 0,18.76312 0,18.76312 -59.32641,70.90042 -59.326413,70.9004 24.731817,0.5836 c 13.6025,0.321 40.087586,0.6387 58.855736,0.706 l 34.12392,0.1224 0,18.7039 0,18.7038 -3.53006,0.5835 c -1.94153,0.3209 -39.48698,0.5881 -83.434331,0.5938 l -79.9042717,0.01 0.6911085,-18.5268 z"
       id="path10517"
       inkscape:connector-curvature="0" />
  </g>
</svg>
