<?xml version="1.0" encoding="UTF-8" standalone="no"?>
<!-- Created with Inkscape (http://www.inkscape.org/) -->

<svg
   xmlns:dc="http://purl.org/dc/elements/1.1/"
   xmlns:cc="http://creativecommons.org/ns#"
   xmlns:rdf="http://www.w3.org/1999/02/22-rdf-syntax-ns#"
   xmlns:svg="http://www.w3.org/2000/svg"
   xmlns="http://www.w3.org/2000/svg"
   xmlns:sodipodi="http://sodipodi.sourceforge.net/DTD/sodipodi-0.dtd"
   xmlns:inkscape="http://www.inkscape.org/namespaces/inkscape"
   width="210mm"
   height="297mm"
   viewBox="0 0 210 297"
   version="1.1"
   id="svg8506"
   inkscape:version="0.92.2 2405546, 2018-03-11"
   sodipodi:docname="letter-O.svg">
  <defs
     id="defs8500" />
  <sodipodi:namedview
     id="base"
     pagecolor="#ffffff"
     bordercolor="#666666"
     borderopacity="1.0"
     inkscape:pageopacity="0.0"
     inkscape:pageshadow="2"
     inkscape:zoom="0.35"
     inkscape:cx="-134.28571"
     inkscape:cy="560"
     inkscape:document-units="mm"
     inkscape:current-layer="layer1"
     showgrid="false"
     inkscape:window-width="1856"
     inkscape:window-height="960"
     inkscape:window-x="32"
     inkscape:window-y="32"
     inkscape:window-maximized="1" />
  <metadata
     id="metadata8503">
    <rdf:RDF>
      <cc:Work
         rdf:about="">
        <dc:format>image/svg+xml</dc:format>
        <dc:type
           rdf:resource="http://purl.org/dc/dcmitype/StillImage" />
        <dc:title></dc:title>
      </cc:Work>
    </rdf:RDF>
  </metadata>
  <g
     inkscape:label="Layer 1"
     inkscape:groupmode="layer"
     id="layer1">
    <path
       style="fill:none;stroke:#000000;stroke-width:0.26458332px;stroke-linecap:butt;stroke-linejoin:miter;stroke-opacity:1"
       d="m 33.981882,169.38137 c 15.75401,-0.0118 33.16001,13.06509 33.8628,32.9398 v 61.52653 c 0,20.51587 -18.09208,33.02001 -33.8562,33.02001 -15.76411,0 -33.85619034,-12.31831 -33.85619034,-33.02001 l 0.006,-61.44632 c 0,-20.95138 18.08909034,-33.00814 33.84310034,-33.02001 z"
       id="path8486"
       inkscape:connector-curvature="0"
       sodipodi:nodetypes="zcczccz" />
    <path
       style="fill:none;stroke:#000000;stroke-width:0.26458332px;stroke-linecap:butt;stroke-linejoin:miter;stroke-opacity:1"
       d="m 34.353262,180.62743 c -10.45064,-0.0852 -22.92545,7.51044 -22.92545,21.77395 v 61.44632 c 0,11.28289 10.87523,21.535 21.33795,21.81931 10.46271,0.28432 23.79003,-7.22043 23.79003,-21.81931 l -0.0133,-61.44632 c 0,-12.91471 -11.73864,-21.68873 -22.18927,-21.77395 z"
       id="path8488"
       inkscape:connector-curvature="0"
       sodipodi:nodetypes="zcczccz" />
    <path
       style="fill:#000000;fill-opacity:1;stroke:none;stroke-width:2.85714293"
       d="M 109.44882,1118.1793 C 74.794583,1113.2759 34.07486,1085.7406 18.115639,1056.4183 2.4478269,1027.6313 1.7142857,1019.846 1.7142857,882.34575 c 0,-81.52127 1.1247432,-131.77782 3.1677269,-141.54258 C 15.020445,692.345 58.862154,652.36737 111.41582,643.65894 c 44.63572,-7.39638 96.68087,17.59882 123.15507,59.14646 19.57387,30.71851 19.52801,30.36044 20.75579,162.03491 0.61932,66.41926 -0.10345,129.22549 -1.63271,141.87489 -6.22685,51.5061 -37.05009,89.7733 -84.99101,105.5168 -21.86804,7.1813 -38.63747,8.8644 -59.25414,5.9473 z m 60.26059,-48.5828 c 22.23169,-11.3524 35.55029,-27.0224 42.09115,-49.5222 3.76061,-12.936 4.29795,-34.57399 3.59606,-144.81015 -0.80387,-126.25251 -0.98617,-129.95007 -7.05465,-143.0861 -8.73435,-18.90668 -29.08308,-37.73133 -48.85346,-45.19445 -40.6821,-15.35709 -89.281384,2.96753 -110.159179,41.53609 -6.056814,11.18904 -6.203705,14.23571 -7.00866,145.36646 -0.967522,157.61445 -1.693082,152.62895 26.282938,180.59535 21.493542,21.4862 35.368791,27.1942 62.661071,25.7779 15.27564,-0.7928 23.68171,-3.1243 38.44473,-10.6629 z"
       id="path9059"
       inkscape:connector-curvature="0"
       transform="scale(0.26458333)" />
  </g>
</svg>
