<?xml version="1.0" encoding="UTF-8" standalone="no"?>
<!-- Created with Inkscape (http://www.inkscape.org/) -->

<svg
   xmlns:dc="http://purl.org/dc/elements/1.1/"
   xmlns:cc="http://creativecommons.org/ns#"
   xmlns:rdf="http://www.w3.org/1999/02/22-rdf-syntax-ns#"
   xmlns:svg="http://www.w3.org/2000/svg"
   xmlns="http://www.w3.org/2000/svg"
   xmlns:sodipodi="http://sodipodi.sourceforge.net/DTD/sodipodi-0.dtd"
   xmlns:inkscape="http://www.inkscape.org/namespaces/inkscape"
   width="210mm"
   height="297mm"
   viewBox="0 0 210 297"
   version="1.1"
   id="svg3288"
   inkscape:version="0.92.2 2405546, 2018-03-11"
   sodipodi:docname="letter-V.svg">
  <defs
     id="defs3282" />
  <sodipodi:namedview
     id="base"
     pagecolor="#ffffff"
     bordercolor="#666666"
     borderopacity="1.0"
     inkscape:pageopacity="0.0"
     inkscape:pageshadow="2"
     inkscape:zoom="0.35"
     inkscape:cx="-134.28571"
     inkscape:cy="560"
     inkscape:document-units="mm"
     inkscape:current-layer="layer1"
     showgrid="false"
     inkscape:window-width="1856"
     inkscape:window-height="960"
     inkscape:window-x="32"
     inkscape:window-y="32"
     inkscape:window-maximized="1" />
  <metadata
     id="metadata3285">
    <rdf:RDF>
      <cc:Work
         rdf:about="">
        <dc:format>image/svg+xml</dc:format>
        <dc:type
           rdf:resource="http://purl.org/dc/dcmitype/StillImage" />
        <dc:title></dc:title>
      </cc:Work>
    </rdf:RDF>
  </metadata>
  <g
     inkscape:label="Layer 1"
     inkscape:groupmode="layer"
     id="layer1">
    <path
       style="display:inline;fill:none;fill-rule:evenodd;stroke:#000000;stroke-width:0.28199893px;stroke-linecap:butt;stroke-linejoin:miter;stroke-opacity:1"
       d="M 67.892849,200.2099 39.133679,296.859 H 27.844789 L 0.1870086,200.2099 H 11.475899 l 8.39467,31.27976 2.57282,9.58675 10.83211,40.3621 10.66194,-39.72792 2.54245,-9.47359 8.59254,-32.01703 z"
       id="path5024-3"
       inkscape:connector-curvature="0"
       sodipodi:nodetypes="cccccccccccc" />
    <path
       style="fill:#000000;fill-opacity:1;stroke:none;stroke-width:2.85714293"
       d="M 106.00835,1117.8054 C 104.15093,1112.4595 8.160908,775.48345 5.9014243,766.37683 L 3.951954,758.51969 h 18.801352 18.801351 l 4.258177,15 c 2.341997,8.25 20.406052,75.42857 40.142343,149.28571 19.736293,73.85714 36.926463,136.8035 38.200393,139.8809 1.82876,4.4176 3.36314,1.7118 7.29073,-12.8571 2.73598,-10.1488 21.35649,-79.5238 41.3789,-154.16666 l 36.40438,-135.71428 22.32302,-0.84107 c 20.28823,-0.7644 22.19918,-0.37374 20.9643,4.28572 -0.7473,2.81972 -24.98839,84.51963 -53.86909,181.55535 l -52.51036,176.42854 h -19.44411 c -12.98872,0 -19.85608,-1.1857 -20.68499,-3.5714 z"
       id="path3839"
       inkscape:connector-curvature="0"
       transform="scale(0.26458333)" />
  </g>
</svg>
