<?xml version="1.0" encoding="UTF-8" standalone="no"?>
<!-- Created with Inkscape (http://www.inkscape.org/) -->

<svg
   xmlns:dc="http://purl.org/dc/elements/1.1/"
   xmlns:cc="http://creativecommons.org/ns#"
   xmlns:rdf="http://www.w3.org/1999/02/22-rdf-syntax-ns#"
   xmlns:svg="http://www.w3.org/2000/svg"
   xmlns="http://www.w3.org/2000/svg"
   xmlns:sodipodi="http://sodipodi.sourceforge.net/DTD/sodipodi-0.dtd"
   xmlns:inkscape="http://www.inkscape.org/namespaces/inkscape"
   width="210mm"
   height="297mm"
   viewBox="0 0 210 297"
   version="1.1"
   id="svg2680"
   inkscape:version="0.92.2 2405546, 2018-03-11"
   sodipodi:docname="letter-v.svg">
  <defs
     id="defs2674" />
  <sodipodi:namedview
     id="base"
     pagecolor="#ffffff"
     bordercolor="#666666"
     borderopacity="1.0"
     inkscape:pageopacity="0.0"
     inkscape:pageshadow="2"
     inkscape:zoom="0.35"
     inkscape:cx="-134.28571"
     inkscape:cy="560"
     inkscape:document-units="mm"
     inkscape:current-layer="layer1"
     showgrid="false"
     inkscape:window-width="1856"
     inkscape:window-height="960"
     inkscape:window-x="32"
     inkscape:window-y="32"
     inkscape:window-maximized="1" />
  <metadata
     id="metadata2677">
    <rdf:RDF>
      <cc:Work
         rdf:about="">
        <dc:format>image/svg+xml</dc:format>
        <dc:type
           rdf:resource="http://purl.org/dc/dcmitype/StillImage" />
        <dc:title></dc:title>
      </cc:Work>
    </rdf:RDF>
  </metadata>
  <g
     inkscape:label="Layer 1"
     inkscape:groupmode="layer"
     id="layer1">
    <path
       style="display:inline;fill:none;fill-rule:evenodd;stroke:#000000;stroke-width:0.2367968px;stroke-linecap:butt;stroke-linejoin:miter;stroke-opacity:1"
       d="M 67.881679,228.73338 39.122499,296.8816 H 27.833609 L 0.1758294,228.73338 H 11.464719 l 8.39467,22.05566 2.57282,6.75971 10.83212,28.45971 10.66193,-28.01254 2.54245,-6.67992 8.59254,-22.57552 z"
       id="path5024-3"
       inkscape:connector-curvature="0"
       sodipodi:nodetypes="cccccccccccc" />
    <path
       style="fill:#000000;fill-opacity:1;stroke:none;stroke-width:2.85714293"
       d="M 106.46903,1119.234 C 105.38665,1117.4454 11.603216,887.00885 5.7517366,871.76014 c -1.70396,-4.44045 0.100898,-4.85921 17.6428194,-4.09346 l 19.540958,0.85301 40.198826,105.71428 c 22.10936,58.14283 41.44172,105.34013 42.96081,104.88273 1.5191,-0.4574 20.76199,-48.3409 42.76199,-106.40795 l 40,-105.57638 22.1812,-0.0206 22.1812,-0.0206 -4.42895,10.71429 c -2.43592,5.89286 -26.52081,63.10714 -53.52198,127.14294 l -49.09302,116.4285 H 126.9707 c -10.56269,0 -19.78844,-0.9643 -20.50167,-2.1428 z"
       id="path3233"
       inkscape:connector-curvature="0"
       transform="scale(0.26458333)" />
  </g>
</svg>
