<?xml version="1.0" encoding="UTF-8" standalone="no"?>
<!-- Created with Inkscape (http://www.inkscape.org/) -->

<svg
   xmlns:dc="http://purl.org/dc/elements/1.1/"
   xmlns:cc="http://creativecommons.org/ns#"
   xmlns:rdf="http://www.w3.org/1999/02/22-rdf-syntax-ns#"
   xmlns:svg="http://www.w3.org/2000/svg"
   xmlns="http://www.w3.org/2000/svg"
   xmlns:sodipodi="http://sodipodi.sourceforge.net/DTD/sodipodi-0.dtd"
   xmlns:inkscape="http://www.inkscape.org/namespaces/inkscape"
   width="210mm"
   height="297mm"
   viewBox="0 0 744.09448819 1052.3622047"
   id="svg7080"
   version="1.1"
   inkscape:version="0.91 r13725"
   sodipodi:docname="letter-w.svg">
  <defs
     id="defs7082" />
  <sodipodi:namedview
     id="base"
     pagecolor="#ffffff"
     bordercolor="#666666"
     borderopacity="1.0"
     inkscape:pageopacity="0.0"
     inkscape:pageshadow="2"
     inkscape:zoom="1.0623047"
     inkscape:cx="222.0307"
     inkscape:cy="294.07612"
     inkscape:document-units="px"
     inkscape:current-layer="layer1"
     showgrid="false"
     showborder="false"
     inkscape:window-width="1920"
     inkscape:window-height="1044"
     inkscape:window-x="0"
     inkscape:window-y="0"
     inkscape:window-maximized="1" />
  <metadata
     id="metadata7085">
    <rdf:RDF>
      <cc:Work
         rdf:about="">
        <dc:format>image/svg+xml</dc:format>
        <dc:type
           rdf:resource="http://purl.org/dc/dcmitype/StillImage" />
        <dc:title></dc:title>
      </cc:Work>
    </rdf:RDF>
  </metadata>
  <g
     inkscape:label="Layer 1"
     inkscape:groupmode="layer"
     id="layer1">
    <path
       style="fill:none;fill-rule:evenodd;stroke:#000000;stroke-width:1px;stroke-linecap:butt;stroke-linejoin:miter;stroke-opacity:1"
       d="m 0.5,809.83901 40,0 -0.1864,123.03572 c 0,0 -1.4126,77.28097 79.7731,77.78167 48.2243,0.2975 79.6889,-43.08735 79.5596,-77.90982 -0.1816,-48.92606 0.5695,-122.90757 0.5695,-122.90757 l 40,0 0,123.0357 c 0,0 5.7607,75.64379 80.9786,75.78169 74.6994,0.1371 78.9235,-75.78172 78.9235,-75.78172 l 0,-123.0357 40,0 c 0,0 0.445,95.6971 0,123.0357 -0.8625,52.98354 -44.0886,118.40922 -113.9627,117.00002 -76.1546,-1.5359 -106.1613,-53.09904 -106.1613,-53.09904 0,0 -30.618,51.27134 -99.7409,53.09904 -53.2957,1.4092 -79.3529,-32.8956 -79.3529,-32.8956 l -0.4001,34.8831 -40,0 z"
       id="path7033"
       inkscape:connector-curvature="0"
       sodipodi:nodetypes="cccsscccscccsscscccc" />
    <path
       style="opacity:1;fill:#000001;fill-opacity:1;stroke:none;stroke-width:40;stroke-miterlimit:4;stroke-dasharray:none"
       d="m 1.7549182,930.45891 0,-120.02206 18.7862218,0 18.786224,0 0.298339,67.54183 0.29834,67.54183 2.502694,9.14047 c 4.451823,16.25918 13.294902,30.73666 24.413591,39.96883 6.108803,5.07231 19.756687,11.81949 28.108192,13.89589 16.0196,3.9831 34.6885,3.7818 48.65405,-0.5245 26.4702,-8.16213 48.27153,-31.76474 54.90746,-59.444 1.68934,-7.04641 1.85704,-11.18268 1.86304,-45.95028 0.004,-21.01377 0.28659,-50.34857 0.62881,-65.18846 l 0.62221,-26.98161 18.63853,0 18.63854,0 0.29656,64.24711 c 0.29435,63.76983 0.31262,64.30304 2.45934,71.7779 9.87198,34.37412 29.97899,54.70094 60.59469,61.25704 9.29517,1.9905 28.21202,1.9607 37.91832,-0.06 14.78368,-3.0774 25.52207,-8.73211 35.77087,-18.83668 10.73587,-10.58478 17.55695,-22.68097 22.34343,-39.62288 2.07181,-7.33319 2.10748,-8.42722 2.38351,-73.10372 l 0.28023,-65.65917 19.3239,0 19.32389,0 -0.36081,67.07115 c -0.34259,63.68414 -0.45894,67.49899 -2.30408,75.5433 -8.6413,37.67372 -31.42993,68.7274 -61.94847,84.416 -17.27549,8.8808 -30.87731,11.6668 -52.95607,10.8467 -27.59192,-1.0249 -48.9041,-7.6681 -70.58059,-22.0007 -9.23645,-6.1072 -21.81961,-17.7874 -27.0618,-25.1199 -2.07097,-2.89676 -4.02732,-5.1708 -4.34744,-5.05342 -0.32012,0.11736 -3.20075,3.48008 -6.40141,7.47272 -17.03992,21.2561 -41.97619,36.4255 -70.20721,42.7087 -9.1177,2.0293 -33.1257,2.8067 -42.96641,1.3914 -19.633503,-2.8237 -38.80045,-12.0909 -53.147845,-25.697 l -6.689063,-6.3434 -0.607901,7.1915 c -0.334346,3.9553 -0.607902,11.7872 -0.607902,17.4043 l 0,10.2128 -18.826991,0 -18.8269898,0 0,-120.02209 z"
       id="path7797"
       inkscape:connector-curvature="0" />
  </g>
</svg>
