<?xml version="1.0" encoding="UTF-8" standalone="no"?>
<!-- Created with Inkscape (http://www.inkscape.org/) -->

<svg
   xmlns:dc="http://purl.org/dc/elements/1.1/"
   xmlns:cc="http://creativecommons.org/ns#"
   xmlns:rdf="http://www.w3.org/1999/02/22-rdf-syntax-ns#"
   xmlns:svg="http://www.w3.org/2000/svg"
   xmlns="http://www.w3.org/2000/svg"
   xmlns:sodipodi="http://sodipodi.sourceforge.net/DTD/sodipodi-0.dtd"
   xmlns:inkscape="http://www.inkscape.org/namespaces/inkscape"
   width="210mm"
   height="297mm"
   viewBox="0 0 744.09448819 1052.3622047"
   id="svg10761"
   version="1.1"
   inkscape:version="0.91 r13725"
   sodipodi:docname="letter-P.svg">
  <defs
     id="defs10763" />
  <sodipodi:namedview
     id="base"
     pagecolor="#ffffff"
     bordercolor="#666666"
     borderopacity="1.0"
     inkscape:pageopacity="0.0"
     inkscape:pageshadow="2"
     inkscape:zoom="1.0623047"
     inkscape:cx="222.0307"
     inkscape:cy="331.7301"
     inkscape:document-units="px"
     inkscape:current-layer="layer1"
     showgrid="false"
     inkscape:window-width="1920"
     inkscape:window-height="1044"
     inkscape:window-x="0"
     inkscape:window-y="0"
     inkscape:window-maximized="1" />
  <metadata
     id="metadata10766">
    <rdf:RDF>
      <cc:Work
         rdf:about="">
        <dc:format>image/svg+xml</dc:format>
        <dc:type
           rdf:resource="http://purl.org/dc/dcmitype/StillImage" />
        <dc:title></dc:title>
      </cc:Work>
    </rdf:RDF>
  </metadata>
  <g
     inkscape:label="Layer 1"
     inkscape:groupmode="layer"
     id="layer1">
    <path
       style="fill:none;fill-rule:evenodd;stroke:#000000;stroke-width:1px;stroke-linecap:butt;stroke-linejoin:miter;stroke-opacity:1"
       d="m 0.5,598.57682 0,453.28538 40,0 -0.1529,-241.44493 c 0,0 33.8536,27.93103 86.9951,27.93103 100.4218,0 111.0507,-105.14595 110.6836,-128.90785 -0.7343,-47.5238 -36.608,-110.92558 -110.2662,-110.92558 -73.6582,0 -85.5456,34.34136 -85.5456,34.34136 L 40.5,598.57682 Z"
       id="path10747"
       inkscape:connector-curvature="0"
       sodipodi:nodetypes="ccccsszccc" />
    <path
       style="fill:none;fill-rule:evenodd;stroke:#000000;stroke-width:1px;stroke-linecap:butt;stroke-linejoin:miter;stroke-opacity:1"
       d="m 118.2685,640.14293 c -57.3326,0 -76.454,33.26306 -78.4133,71.29752 -1.9593,38.03446 14.1304,88.04642 81.9894,86.97682 67.859,-1.0696 77.6909,-60.64274 76.8372,-86.97682 -0.8537,-26.33408 -23.0807,-71.29752 -80.4133,-71.29752 z"
       id="path10749"
       inkscape:connector-curvature="0"
       sodipodi:nodetypes="zzzzz" />
    <path
       style="opacity:1;fill:#000001;fill-opacity:1;stroke:none;stroke-width:40;stroke-miterlimit:4;stroke-dasharray:none"
       d="m 1.7549182,825.02777 0,-225.45321 18.6990378,0 18.699039,0 0.598626,4.36746 c 0.329245,2.4021 0.598627,6.78606 0.598627,9.74214 0,7.53481 1.105432,19.77931 1.785492,19.7773 0.312335,-9.3e-4 1.765415,-1.89723 3.229067,-4.214 5.912774,-9.35917 18.834698,-18.08473 34.09344,-23.02168 12.243274,-3.9613 23.340203,-5.72522 39.965363,-6.35273 23.55639,-0.88912 38.51373,1.92058 56.01029,10.52138 12.4159,6.10329 20.47753,12.05603 29.91877,22.09213 23.37352,24.8462 34.8921,59.77375 30.7536,93.25353 -6.17251,49.93471 -28.57028,86.49955 -62.62254,102.23266 -25.80168,11.92111 -62.20213,12.37566 -94.866997,1.18466 -10.020836,-3.43315 -25.127305,-10.81195 -32.802074,-16.02229 -2.948609,-2.00179 -5.596155,-3.63962 -5.883435,-3.63962 -0.287279,0 -0.522325,54.22173 -0.522325,120.49274 l 0,120.49276 -18.826991,0 -18.8269898,0 0,-225.45323 z M 144.36937,796.42644 c 26.30583,-6.86959 44.07486,-25.75604 51.92164,-55.18679 2.19185,-8.22099 2.51831,-11.30228 2.59214,-24.46708 0.0739,-13.16794 -0.18249,-15.90511 -2.03897,-21.77074 -12.33571,-38.97514 -47.8777,-60.18594 -92.20765,-55.02781 -20.427451,2.37688 -33.93503,8.26358 -45.478504,19.81985 -4.629227,4.63436 -8.27575,9.37987 -10.536262,13.71167 -7.611394,14.58568 -11.142077,35.20931 -9.256551,54.06988 3.671872,36.72904 23.257719,61.33649 54.641957,68.65158 11.6797,2.72233 12.2995,2.77628 28.24049,2.45767 11.02989,-0.22045 16.42886,-0.77159 22.12171,-2.25823 z"
       id="path11317"
       inkscape:connector-curvature="0" />
  </g>
</svg>
