<?xml version="1.0" encoding="UTF-8" standalone="no"?>
<!-- Created with Inkscape (http://www.inkscape.org/) -->

<svg
   xmlns:dc="http://purl.org/dc/elements/1.1/"
   xmlns:cc="http://creativecommons.org/ns#"
   xmlns:rdf="http://www.w3.org/1999/02/22-rdf-syntax-ns#"
   xmlns:svg="http://www.w3.org/2000/svg"
   xmlns="http://www.w3.org/2000/svg"
   xmlns:sodipodi="http://sodipodi.sourceforge.net/DTD/sodipodi-0.dtd"
   xmlns:inkscape="http://www.inkscape.org/namespaces/inkscape"
   width="210mm"
   height="297mm"
   viewBox="0 0 744.09448819 1052.3622047"
   id="svg4385"
   version="1.1"
   inkscape:version="0.91 r13725"
   sodipodi:docname="letter-x.svg">
  <defs
     id="defs4387" />
  <sodipodi:namedview
     id="base"
     pagecolor="#ffffff"
     bordercolor="#666666"
     borderopacity="1.0"
     inkscape:pageopacity="0.0"
     inkscape:pageshadow="2"
     inkscape:zoom="1.0623047"
     inkscape:cx="222.0307"
     inkscape:cy="294.07612"
     inkscape:document-units="px"
     inkscape:current-layer="layer1"
     showgrid="false"
     inkscape:window-width="1920"
     inkscape:window-height="1044"
     inkscape:window-x="0"
     inkscape:window-y="0"
     inkscape:window-maximized="1" />
  <metadata
     id="metadata4390">
    <rdf:RDF>
      <cc:Work
         rdf:about="">
        <dc:format>image/svg+xml</dc:format>
        <dc:type
           rdf:resource="http://purl.org/dc/dcmitype/StillImage" />
        <dc:title></dc:title>
      </cc:Work>
    </rdf:RDF>
  </metadata>
  <g
     inkscape:label="Layer 1"
     inkscape:groupmode="layer"
     id="layer1">
    <path
       style="display:inline;fill:none;fill-rule:evenodd;stroke:#000000;stroke-width:1px;stroke-linecap:butt;stroke-linejoin:miter;stroke-opacity:1"
       d="m 1.4997869,810.38155 40.0000001,0 c 0,0 -16.8827,103.99482 80.290413,104.44492 92.0573,0.42641 79.6117,-104.44489 79.6117,-104.44489 l 40,0 c 0,0 11.0874,77.54489 -45.7275,119.03569 58.4177,47.18221 48.0788,122.44493 48.0788,122.44493 l -40,0 c 0,0 13.3055,-103.91155 -80.3141,-104.44493 -93.224713,-0.53113 -79.588513,104.44493 -79.588513,104.44493 l -40.0000001,0 c 0,0 -10.0661,-81.28047 47.8306001,-120.44493 C -10.916613,889.84419 1.4997869,810.38155 1.4997869,810.38155 Z"
       id="path7827"
       inkscape:connector-curvature="0"
       sodipodi:nodetypes="ccscccccscccc" />
    <path
       style="opacity:1;fill:#000001;fill-opacity:1;stroke:none;stroke-width:40;stroke-miterlimit:4;stroke-dasharray:none"
       d="m 4.8637732,1032.36 c 0.5818097,-19.9533 2.1940819,-30.0206 7.2013178,-44.96615 7.20934,-21.51844 20.333279,-40.64097 35.215715,-51.31185 2.86915,-2.05722 5.236965,-4.01424 5.261811,-4.34895 0.02485,-0.33472 -3.627331,-3.51177 -8.115949,-7.06012 C 16.062579,902.25047 0.96200311,866.6735 1.9326958,824.55709 l 0.2928971,-12.70821 18.9858681,-0.25459 18.985868,-0.25458 -0.521727,10.60942 c -2.122038,43.15212 15.873562,76.50457 47.466061,87.97203 11.611886,4.21488 18.615757,5.29655 34.635317,5.34903 12.57395,0.0412 16.4546,-0.29888 23.49567,-2.05899 33.95174,-8.48723 53.31243,-35.50457 57.0573,-79.622 0.57228,-6.74183 0.7607,-14.49732 0.41872,-17.23443 l -0.62178,-4.97657 19.48394,0 19.48395,0 -0.50559,19.06233 c -0.36872,13.90208 -1.00749,21.35577 -2.35961,27.53447 -3.63554,16.61294 -9.90921,32.00857 -18.22087,44.7141 -3.89487,5.95386 -18.75617,21.74718 -23.30398,24.76547 l -2.26291,1.50185 9.32303,9.23712 c 19.61118,19.43048 31.92274,43.32555 37.0802,71.96766 2.11253,11.732 3.43962,31.6334 2.45824,36.8645 l -0.64821,3.4553 -18.66393,0 -18.66394,0 -0.51119,-15.7676 c -0.97288,-30.0079 -8.22224,-50.6224 -23.26334,-66.15242 -10.46501,-10.80517 -22.83059,-17.21506 -39.06601,-20.25046 -11.97078,-2.23807 -35.63757,-1.51933 -45.655451,1.38651 -16.487287,4.7824 -31.021647,15.39865 -39.533517,28.87624 -10.096233,15.98626 -15.630949,39.11483 -14.89919,62.26093 l 0.30511,9.6509 -19.184116,-0 -19.1841153,-0 0.5283825,-18.121 z"
       id="path4958"
       inkscape:connector-curvature="0" />
  </g>
</svg>
