<?xml version="1.0" encoding="UTF-8" standalone="no"?>
<!-- Created with Inkscape (http://www.inkscape.org/) -->

<svg
   xmlns:dc="http://purl.org/dc/elements/1.1/"
   xmlns:cc="http://creativecommons.org/ns#"
   xmlns:rdf="http://www.w3.org/1999/02/22-rdf-syntax-ns#"
   xmlns:svg="http://www.w3.org/2000/svg"
   xmlns="http://www.w3.org/2000/svg"
   xmlns:sodipodi="http://sodipodi.sourceforge.net/DTD/sodipodi-0.dtd"
   xmlns:inkscape="http://www.inkscape.org/namespaces/inkscape"
   width="210mm"
   height="297mm"
   viewBox="0 0 210 297"
   version="1.1"
   id="svg5860"
   inkscape:version="0.92.2 2405546, 2018-03-11"
   sodipodi:docname="letter-U.svg">
  <defs
     id="defs5854" />
  <sodipodi:namedview
     id="base"
     pagecolor="#ffffff"
     bordercolor="#666666"
     borderopacity="1.0"
     inkscape:pageopacity="0.0"
     inkscape:pageshadow="2"
     inkscape:zoom="0.35"
     inkscape:cx="-134.28571"
     inkscape:cy="560"
     inkscape:document-units="mm"
     inkscape:current-layer="layer1"
     showgrid="false"
     inkscape:window-width="1856"
     inkscape:window-height="960"
     inkscape:window-x="32"
     inkscape:window-y="32"
     inkscape:window-maximized="1" />
  <metadata
     id="metadata5857">
    <rdf:RDF>
      <cc:Work
         rdf:about="">
        <dc:format>image/svg+xml</dc:format>
        <dc:type
           rdf:resource="http://purl.org/dc/dcmitype/StillImage" />
        <dc:title></dc:title>
      </cc:Work>
    </rdf:RDF>
  </metadata>
  <g
     inkscape:label="Layer 1"
     inkscape:groupmode="layer"
     id="layer1">
    <path
       style="fill:none;stroke:#000000;stroke-width:0.26458332px;stroke-linecap:butt;stroke-linejoin:miter;stroke-opacity:1"
       d="M 0.13229272,169.02144 H 11.421173 l 0.007,94.42856 c 0.53928,13.36626 12.61833,22.10603 22.66087,22.0839 10.04254,-0.0221 22.46052,-8.40518 22.46052,-22.0839 l 0.007,-94.42856 h 11.28889 v 127.84627 h -11.28889 l 0.28704,-10.80464 c -3.43329,5.81864 -10.95538,10.40694 -22.85435,10.40694 -11.89897,0 -33.85620028,-10.32221 -33.85620028,-33.02001 z"
       id="path5843"
       inkscape:connector-curvature="0"
       sodipodi:nodetypes="cccccccccczcc" />
    <path
       style="fill:#000000;fill-opacity:1;stroke:none;stroke-width:2.85714293"
       d="m 216,1099.434 v -21.9429 l -9.81921,11.4716 c -12.89299,15.0625 -38.45074,26.528 -63.88749,28.6605 C 79.633194,1122.8764 17.234475,1078.1338 4.8820126,1019.0933 2.7555014,1008.9293 1.7142857,944.36429 1.7142857,822.66477 V 641.37683 H 21.635314 41.556343 l 0.793257,187.85714 0.793257,187.85713 6.55232,12.2716 c 10.099017,18.9141 25.227652,33.9211 42.988983,42.6433 41.06267,20.1651 91.72926,2.2279 114.25208,-40.4479 l 7.63519,-14.467 0.81191,-187.85713 0.81191,-187.85714 H 236.09762 256 v 240 239.99997 h -20 -20 z"
       id="path6411"
       inkscape:connector-curvature="0"
       transform="scale(0.26458333)" />
  </g>
</svg>
