<?xml version="1.0" encoding="UTF-8" standalone="no"?>
<!-- Created with Inkscape (http://www.inkscape.org/) -->

<svg
   xmlns:dc="http://purl.org/dc/elements/1.1/"
   xmlns:cc="http://creativecommons.org/ns#"
   xmlns:rdf="http://www.w3.org/1999/02/22-rdf-syntax-ns#"
   xmlns:svg="http://www.w3.org/2000/svg"
   xmlns="http://www.w3.org/2000/svg"
   xmlns:sodipodi="http://sodipodi.sourceforge.net/DTD/sodipodi-0.dtd"
   xmlns:inkscape="http://www.inkscape.org/namespaces/inkscape"
   width="210mm"
   height="297mm"
   viewBox="0 0 744.09448819 1052.3622047"
   id="svg5528"
   version="1.1"
   inkscape:version="0.91 r13725"
   sodipodi:docname="letter-p.svg">
  <defs
     id="defs5530" />
  <sodipodi:namedview
     id="base"
     pagecolor="#ffffff"
     bordercolor="#666666"
     borderopacity="1.0"
     inkscape:pageopacity="0.0"
     inkscape:pageshadow="2"
     inkscape:zoom="1.0623047"
     inkscape:cx="222.0307"
     inkscape:cy="315.33615"
     inkscape:document-units="px"
     inkscape:current-layer="layer1"
     showgrid="false"
     showborder="false"
     inkscape:window-width="1920"
     inkscape:window-height="1044"
     inkscape:window-x="0"
     inkscape:window-y="0"
     inkscape:window-maximized="1" />
  <metadata
     id="metadata5533">
    <rdf:RDF>
      <cc:Work
         rdf:about="">
        <dc:format>image/svg+xml</dc:format>
        <dc:type
           rdf:resource="http://purl.org/dc/dcmitype/StillImage" />
        <dc:title></dc:title>
      </cc:Work>
    </rdf:RDF>
  </metadata>
  <g
     inkscape:label="Layer 1"
     inkscape:groupmode="layer"
     id="layer1">
    <g
       id="g4204-5-9"
       transform="matrix(1,0,0,-1,-1371.6621,1160.3654)">
      <path
         sodipodi:nodetypes="ccccsssccc"
         inkscape:connector-curvature="0"
         id="path11265-6-1"
         d="m 1374.0636,109.34253 -1.8995,485.00714 40,0 L 1413,565.3622 c 0,0 23,28 79,28 56,0 117,-43 120,-115 3,-72 -64,-124 -118,-125 -54,-1 -82,33 -82,33 l 0.6494,-277.8481 z"
         style="fill:none;fill-rule:evenodd;stroke:#000000;stroke-width:1px;stroke-linecap:butt;stroke-linejoin:miter;stroke-opacity:1" />
      <path
         sodipodi:nodetypes="sszss"
         inkscape:connector-curvature="0"
         id="path11267-2-2"
         d="m 1413,477.3622 c 1.0319,-30.8839 14.6809,-83 81,-83 44.0065,0 78.0376,40.5317 78,81 -0.038,40.4683 -31.9063,81 -80,81 -53.8598,0 -80,-49.07201 -79,-79 z"
         style="fill:none;fill-rule:evenodd;stroke:#000000;stroke-width:1px;stroke-linecap:butt;stroke-linejoin:miter;stroke-opacity:1" />
    </g>
    <path
       style="opacity:1;fill:#000000;stroke:none;stroke-width:40;stroke-miterlimit:4;stroke-dasharray:none"
       d="m 10.578074,1050.1754 -6.7091104,-0.3226 -0.5815262,-40.6744 C 2.9675979,986.8074 2.4388651,878.16964 2.1124754,767.76111 l -0.5934358,-200.74278 18.8054054,0 18.805405,0 0.604557,7.76613 c 0.332506,4.27138 0.607096,10.83729 0.610199,14.59092 0.0031,3.75363 0.349996,6.82478 0.770874,6.82478 0.420877,0 2.009404,-1.3153 3.53006,-2.92289 5.945465,-6.28536 19.811456,-14.28071 31.946664,-18.42095 59.214736,-20.20265 123.624666,5.29497 151.020106,59.78355 12.72966,25.31884 15.14194,59.46057 6.11458,86.54122 -14.18394,42.54949 -57.25936,78.12847 -101.80142,84.08483 -30.27721,4.04879 -64.270065,-6.8486 -86.691109,-27.79136 l -6.115953,-5.71271 0.539317,139.55506 0.539318,139.55509 -11.45493,-0.1871 c -6.30021,-0.1028 -14.474028,-0.3322 -18.164039,-0.5095 z M 137.48424,765.21785 c 40.68528,-8.62276 69.74967,-52.11745 62.5181,-93.55798 -3.17127,-18.17299 -10.46037,-31.94194 -24.00055,-45.33652 -13.92185,-13.77214 -27.60553,-20.43683 -46.54652,-22.67066 -24.06549,-2.8382 -46.5177,4.81677 -63.732531,21.72931 -18.629724,18.30258 -27.312574,41.48622 -24.616959,65.72851 4.613423,41.48954 26.225429,67.67979 61.03873,73.96903 9.69543,1.75154 27.40097,1.82083 35.33973,0.13831 z"
       id="path6678"
       inkscape:connector-curvature="0" />
  </g>
</svg>
