<?xml version="1.0" encoding="UTF-8" standalone="no"?>
<!-- Created with Inkscape (http://www.inkscape.org/) -->

<svg
   xmlns:dc="http://purl.org/dc/elements/1.1/"
   xmlns:cc="http://creativecommons.org/ns#"
   xmlns:rdf="http://www.w3.org/1999/02/22-rdf-syntax-ns#"
   xmlns:svg="http://www.w3.org/2000/svg"
   xmlns="http://www.w3.org/2000/svg"
   xmlns:sodipodi="http://sodipodi.sourceforge.net/DTD/sodipodi-0.dtd"
   xmlns:inkscape="http://www.inkscape.org/namespaces/inkscape"
   width="210mm"
   height="297mm"
   viewBox="0 0 744.09448819 1052.3622047"
   id="svg9511"
   version="1.1"
   inkscape:version="0.91 r13725"
   sodipodi:docname="letter-J.svg">
  <defs
     id="defs9513" />
  <sodipodi:namedview
     id="base"
     pagecolor="#ffffff"
     bordercolor="#666666"
     borderopacity="1.0"
     inkscape:pageopacity="0.0"
     inkscape:pageshadow="2"
     inkscape:zoom="1.0623047"
     inkscape:cx="222.0307"
     inkscape:cy="363.97951"
     inkscape:document-units="px"
     inkscape:current-layer="layer1"
     showgrid="false"
     inkscape:window-width="1920"
     inkscape:window-height="1044"
     inkscape:window-x="0"
     inkscape:window-y="0"
     inkscape:window-maximized="1" />
  <metadata
     id="metadata9516">
    <rdf:RDF>
      <cc:Work
         rdf:about="">
        <dc:format>image/svg+xml</dc:format>
        <dc:type
           rdf:resource="http://purl.org/dc/dcmitype/StillImage" />
        <dc:title></dc:title>
      </cc:Work>
    </rdf:RDF>
  </metadata>
  <g
     inkscape:label="Layer 1"
     inkscape:groupmode="layer"
     id="layer1">
    <path
       style="fill:none;fill-rule:evenodd;stroke:#000000;stroke-width:1px;stroke-linecap:butt;stroke-linejoin:miter;stroke-opacity:1"
       d="m 0.54742611,353.86222 239.72601389,0.0619 0.2,580.93808 c 0,0 -10.6599,117 -119.9629,117 -109.303014,0 -119.96291389,-117 -119.96291389,-117 l 40.02349989,0 c 0,0 3.5802,76.3197 78.337114,76.3197 74.7569,0 81.5418,-76.3197 81.5418,-76.3197 L 200.00044,396.65475 0.54742611,394.86218 Z"
       id="path9500"
       inkscape:connector-curvature="0" />
    <path
       style="opacity:1;fill:#000001;fill-opacity:1;stroke:none;stroke-width:40;stroke-miterlimit:4;stroke-dasharray:none"
       d="M 105.73826,1050.1978 C 60.551108,1045.0518 26.877694,1016.6954 9.8866313,969.48106 7.09718,961.7298 3.1566018,946.57163 2.1873128,939.86421 l -0.6461634,-4.47141 18.9159396,0 c 18.874693,0 18.916781,0.005 19.301604,2.11804 4.627213,25.41233 11.022727,39.89237 23.183944,52.49058 14.487308,15.00788 31.764003,21.71528 55.898043,21.70138 16.65204,-0.01 27.01277,-2.2857 39.17826,-8.607 18.81042,-9.77405 32.44313,-27.49994 40.2118,-52.28525 l 2.6196,-8.35762 0.24324,-273.07823 0.24323,-273.07823 -16.24618,-0.61627 c -8.9354,-0.33894 -29.378,-0.61796 -45.42801,-0.62003 -16.05001,-0.002 -53.645154,-0.28457 -83.544767,-0.62776 l -54.3629348,-0.62399 0,-19.61413 0,-19.61414 118.4747318,0 118.47473,0 0.66264,289.22964 c 0.60109,262.36277 0.52327,290.01663 -0.83773,297.70179 -5.62742,31.77645 -20.01492,60.66982 -39.54887,79.42322 -15.65587,15.0303 -33.7242,24.2219 -54.85845,27.9074 -10.24593,1.7868 -28.83323,2.4432 -38.38371,1.3556 z"
       id="path10065"
       inkscape:connector-curvature="0" />
  </g>
</svg>
