<?xml version="1.0" encoding="UTF-8" standalone="no"?>
<!-- Created with Inkscape (http://www.inkscape.org/) -->

<svg
   xmlns:dc="http://purl.org/dc/elements/1.1/"
   xmlns:cc="http://creativecommons.org/ns#"
   xmlns:rdf="http://www.w3.org/1999/02/22-rdf-syntax-ns#"
   xmlns:svg="http://www.w3.org/2000/svg"
   xmlns="http://www.w3.org/2000/svg"
   xmlns:sodipodi="http://sodipodi.sourceforge.net/DTD/sodipodi-0.dtd"
   xmlns:inkscape="http://www.inkscape.org/namespaces/inkscape"
   width="210mm"
   height="297mm"
   viewBox="0 0 744.09448819 1052.3622047"
   id="svg6120"
   version="1.1"
   inkscape:version="0.91 r13725"
   sodipodi:docname="letter-q.svg">
  <defs
     id="defs6122" />
  <sodipodi:namedview
     id="base"
     pagecolor="#ffffff"
     bordercolor="#666666"
     borderopacity="1.0"
     inkscape:pageopacity="0.0"
     inkscape:pageshadow="2"
     inkscape:zoom="1.0623047"
     inkscape:cx="222.0307"
     inkscape:cy="520"
     inkscape:document-units="px"
     inkscape:current-layer="layer1"
     showgrid="false"
     showborder="false"
     inkscape:window-width="1920"
     inkscape:window-height="1044"
     inkscape:window-x="0"
     inkscape:window-y="0"
     inkscape:window-maximized="1" />
  <metadata
     id="metadata6125">
    <rdf:RDF>
      <cc:Work
         rdf:about="">
        <dc:format>image/svg+xml</dc:format>
        <dc:type
           rdf:resource="http://purl.org/dc/dcmitype/StillImage" />
        <dc:title></dc:title>
      </cc:Work>
    </rdf:RDF>
  </metadata>
  <g
     inkscape:label="Layer 1"
     inkscape:groupmode="layer"
     id="layer1">
    <g
       id="g4204-5-9"
       transform="matrix(-1,0,0,-1,1612.5973,1160.3654)">
      <path
         sodipodi:nodetypes="ccccsssccc"
         inkscape:connector-curvature="0"
         id="path11265-6-1"
         d="m 1374.0636,109.34253 -1.8995,485.00714 40,0 L 1413,565.3622 c 0,0 23,28 79,28 56,0 117,-43 120,-115 3,-72 -64,-124 -118,-125 -54,-1 -82,33 -82,33 l 0.6494,-277.8481 z"
         style="fill:none;fill-rule:evenodd;stroke:#000000;stroke-width:1px;stroke-linecap:butt;stroke-linejoin:miter;stroke-opacity:1" />
      <path
         sodipodi:nodetypes="sszss"
         inkscape:connector-curvature="0"
         id="path11267-2-2"
         d="m 1413,477.3622 c 1.0319,-30.8839 14.6809,-83 81,-83 44.0065,0 78.0376,40.5317 78,81 -0.038,40.4683 -31.9063,81 -80,81 -53.8598,0 -80,-49.07201 -79,-79 z"
         style="fill:none;fill-rule:evenodd;stroke:#000000;stroke-width:1px;stroke-linecap:butt;stroke-linejoin:miter;stroke-opacity:1" />
    </g>
    <path
       style="opacity:1;fill:#000000;stroke:none;stroke-width:40;stroke-miterlimit:4;stroke-dasharray:none"
       d="m 201.32101,911.56072 0,-138.92026 -6.3541,5.5796 c -16.02899,14.07519 -34.02233,22.66391 -54.73754,26.12774 -12.99098,2.17225 -33.08635,1.5312 -43.868826,-1.39943 C 60.066063,793.0837 29.229646,767.82494 12.990512,734.65822 5.3007275,718.95264 2.6429491,708.33371 2.0060126,690.77056 1.4316118,674.93179 3.0070697,662.91819 7.4358344,649.36565 20.619202,609.02299 56.626491,578.21396 100.42508,569.80097 c 10.64141,-2.04404 31.36696,-2.02246 43.94429,0.0458 19.39062,3.18859 39.11529,11.77265 50.29153,21.88656 l 5.44094,4.92378 0.60472,-9.13144 c 0.3326,-5.02229 0.60691,-11.77898 0.60959,-15.01487 l 0.005,-5.88343 19.40352,0 19.4035,0 -0.56535,12.94355 c -0.31095,7.11896 -0.83566,115.98603 -1.16605,241.92683 l -0.60069,228.98329 -18.23746,0 -18.23747,0 0,-138.92028 z M 140.03177,764.80276 c 23.24658,-4.89008 39.54343,-17.36629 50.09585,-38.35138 10.52198,-20.92456 13.02796,-47.08346 6.41967,-67.01233 -8.68153,-26.18121 -28.79542,-46.17139 -53.61571,-53.28593 -9.08567,-2.60434 -25.62541,-3.4886 -35.49971,-1.8979 -35.389174,5.701 -62.240442,34.32026 -67.071045,71.48727 -4.717174,36.29428 19.304481,74.84439 54.114168,86.84278 4.341156,1.49633 10.353797,3.10915 13.361427,3.58405 6.97961,1.10204 23.8677,0.38521 32.19535,-1.36656 z"
       id="path6690"
       inkscape:connector-curvature="0" />
  </g>
</svg>
