<?xml version="1.0" encoding="UTF-8" standalone="no"?>
<!-- Created with Inkscape (http://www.inkscape.org/) -->

<svg
   xmlns:dc="http://purl.org/dc/elements/1.1/"
   xmlns:cc="http://creativecommons.org/ns#"
   xmlns:rdf="http://www.w3.org/1999/02/22-rdf-syntax-ns#"
   xmlns:svg="http://www.w3.org/2000/svg"
   xmlns="http://www.w3.org/2000/svg"
   xmlns:sodipodi="http://sodipodi.sourceforge.net/DTD/sodipodi-0.dtd"
   xmlns:inkscape="http://www.inkscape.org/namespaces/inkscape"
   width="210mm"
   height="297mm"
   viewBox="0 0 744.09448819 1052.3622047"
   id="svg6419"
   version="1.1"
   inkscape:version="0.91 r13725"
   sodipodi:docname="letter-u.svg">
  <defs
     id="defs6421" />
  <sodipodi:namedview
     id="base"
     pagecolor="#ffffff"
     bordercolor="#666666"
     borderopacity="1.0"
     inkscape:pageopacity="0.0"
     inkscape:pageshadow="2"
     inkscape:zoom="1.0623047"
     inkscape:cx="222.0307"
     inkscape:cy="143.46019"
     inkscape:document-units="px"
     inkscape:current-layer="layer1"
     showgrid="false"
     showborder="false"
     inkscape:window-width="1920"
     inkscape:window-height="1044"
     inkscape:window-x="0"
     inkscape:window-y="0"
     inkscape:window-maximized="1" />
  <metadata
     id="metadata6424">
    <rdf:RDF>
      <cc:Work
         rdf:about="">
        <dc:format>image/svg+xml</dc:format>
        <dc:type
           rdf:resource="http://purl.org/dc/dcmitype/StillImage" />
        <dc:title></dc:title>
      </cc:Work>
    </rdf:RDF>
  </metadata>
  <g
     inkscape:label="Layer 1"
     inkscape:groupmode="layer"
     id="layer1">
    <path
       style="fill:none;fill-rule:evenodd;stroke:#000000;stroke-width:1px;stroke-linecap:butt;stroke-linejoin:miter;stroke-opacity:1"
       d="m 0.5,809.83901 40,0 -0.411,121.03572 c 0,0 -1.9168,78.59897 84.0999,78.59897 70.4384,0 75.8023,-76.59899 75.8023,-76.59899 l 0,-123.0357 40,0 c 0,0 -0.3115,107.14701 1e-4,123.03572 0.6277,32.00411 -28.9336,116.99997 -119.9629,116.99997 -50.999,0 -79.9525,-30.6347 -79.9525,-30.6347 l 0.4241,32.6222 -40,0 z"
       id="path6408"
       inkscape:connector-curvature="0"
       sodipodi:nodetypes="cccscccsscccc" />
    <path
       style="opacity:1;fill:#000001;fill-opacity:1;stroke:none;stroke-width:40;stroke-miterlimit:4;stroke-dasharray:none"
       d="m 1.7549182,930.45891 0,-120.02206 18.8269898,0 18.826991,0 0.0072,63.77643 c 0.0045,40.12402 0.374754,66.04567 0.998424,69.8952 2.646044,16.33242 10.583042,32.65697 21.072787,43.3418 10.702765,10.90183 22.766743,17.13202 40.074016,20.69542 13.3764,2.7541 35.49906,2.3023 45.63218,-0.932 12.09437,-3.8603 19.06406,-8.15257 28.24049,-17.39179 9.82792,-9.89517 15.19546,-18.63587 19.8877,-32.38582 5.84283,-17.1217 5.99936,-19.37626 5.99936,-86.4055 l 0,-60.59374 18.827,0 18.82699,0 0,64.84913 c 0,55.02672 -0.22413,66.03064 -1.47974,72.64966 -7.24081,38.17047 -31.55235,72.25126 -63.06561,88.40756 -17.52955,8.9871 -35.99909,12.7615 -58.74564,12.0053 -12.15706,-0.4042 -16.462912,-0.9638 -25.587857,-3.3255 -16.747044,-4.3344 -32.940439,-12.4835 -44.80382,-22.5467 l -5.883434,-4.9906 0,16.4976 0,16.4977 -18.826991,0 -18.8269898,0 0,-120.02209 z"
       id="path6973"
       inkscape:connector-curvature="0" />
  </g>
</svg>
