<?xml version="1.0" encoding="UTF-8" standalone="no"?>
<!-- Created with Inkscape (http://www.inkscape.org/) -->

<svg
   xmlns:dc="http://purl.org/dc/elements/1.1/"
   xmlns:cc="http://creativecommons.org/ns#"
   xmlns:rdf="http://www.w3.org/1999/02/22-rdf-syntax-ns#"
   xmlns:svg="http://www.w3.org/2000/svg"
   xmlns="http://www.w3.org/2000/svg"
   xmlns:sodipodi="http://sodipodi.sourceforge.net/DTD/sodipodi-0.dtd"
   xmlns:inkscape="http://www.inkscape.org/namespaces/inkscape"
   width="210mm"
   height="297mm"
   viewBox="0 0 210 297"
   version="1.1"
   id="svg9870"
   inkscape:version="0.92.2 2405546, 2018-03-11"
   sodipodi:docname="letter-N.svg">
  <defs
     id="defs9864" />
  <sodipodi:namedview
     id="base"
     pagecolor="#ffffff"
     bordercolor="#666666"
     borderopacity="1.0"
     inkscape:pageopacity="0.0"
     inkscape:pageshadow="2"
     inkscape:zoom="0.35"
     inkscape:cx="-134.28571"
     inkscape:cy="560"
     inkscape:document-units="mm"
     inkscape:current-layer="layer1"
     showgrid="false"
     inkscape:window-width="1856"
     inkscape:window-height="960"
     inkscape:window-x="32"
     inkscape:window-y="32"
     inkscape:window-maximized="1" />
  <metadata
     id="metadata9867">
    <rdf:RDF>
      <cc:Work
         rdf:about="">
        <dc:format>image/svg+xml</dc:format>
        <dc:type
           rdf:resource="http://purl.org/dc/dcmitype/StillImage" />
        <dc:title></dc:title>
      </cc:Work>
    </rdf:RDF>
  </metadata>
  <g
     inkscape:label="Layer 1"
     inkscape:groupmode="layer"
     id="layer1">
    <path
       style="fill:none;stroke:#000000;stroke-width:0.26458332px;stroke-linecap:butt;stroke-linejoin:miter;stroke-opacity:1"
       d="m 0.3976558,168.80976 -0.26509,128.05795 H 11.421426 l 0.21777,-116.49951 22.34294,-0.25489 c 9.404094,0 22.560701,7.39312 22.560701,21.71645 l 0.0065,94.42856 h 11.288899 v -94.42856 c 0,-21.3338 -18.94586,-33.02 -33.85617,-33.02 z"
       id="path9847"
       inkscape:connector-curvature="0"
       sodipodi:nodetypes="ccccccccccc" />
    <path
       style="fill:#000000;fill-opacity:1;stroke:none;stroke-width:2.85714293"
       d="m 1.7208594,946.37683 c 0.00362,-96.25 0.8518209,-204.89286 1.8849003,-241.42857 l 1.8783269,-66.42857 58.8293844,0.0566 c 69.726189,0.0671 92.529849,2.87103 117.238679,14.41573 23.74034,11.09218 39.90073,24.4835 52.25976,43.30508 21.35208,32.5171 20.37568,21.9503 21.52402,232.93688 l 1.03023,189.28572 H 236.26205 216.15794 L 215.36469,930.66254 C 214.58619,746.30192 214.459,742.56238 208.53118,729.74864 200.59677,712.59743 184.02211,696.63158 164.57143,687.40359 149.39377,680.20285 147.05212,679.94826 96,679.94826 H 43.142857 L 42.410943,900.66254 41.679029,1121.3768 H 21.696657 1.7142857 Z"
       id="path10440"
       inkscape:connector-curvature="0"
       transform="scale(0.26458333)" />
  </g>
</svg>
