<?xml version="1.0" encoding="UTF-8" standalone="no"?>
<!-- Created with Inkscape (http://www.inkscape.org/) -->

<svg
   xmlns:dc="http://purl.org/dc/elements/1.1/"
   xmlns:cc="http://creativecommons.org/ns#"
   xmlns:rdf="http://www.w3.org/1999/02/22-rdf-syntax-ns#"
   xmlns:svg="http://www.w3.org/2000/svg"
   xmlns="http://www.w3.org/2000/svg"
   xmlns:sodipodi="http://sodipodi.sourceforge.net/DTD/sodipodi-0.dtd"
   xmlns:inkscape="http://www.inkscape.org/namespaces/inkscape"
   width="210mm"
   height="297mm"
   viewBox="0 0 744.09448819 1052.3622047"
   id="svg4337"
   version="1.1"
   inkscape:version="0.91 r13725"
   sodipodi:docname="letter-a.svg">
  <defs
     id="defs4339" />
  <sodipodi:namedview
     id="base"
     pagecolor="#ffffff"
     bordercolor="#666666"
     borderopacity="1.0"
     inkscape:pageopacity="0.0"
     inkscape:pageshadow="2"
     inkscape:zoom="1"
     inkscape:cx="195.23055"
     inkscape:cy="74.129451"
     inkscape:document-units="px"
     inkscape:current-layer="layer1"
     showgrid="false"
     showborder="false"
     inkscape:window-width="1920"
     inkscape:window-height="1044"
     inkscape:window-x="0"
     inkscape:window-y="0"
     inkscape:window-maximized="1"
     inkscape:object-nodes="false" />
  <metadata
     id="metadata4342">
    <rdf:RDF>
      <cc:Work
         rdf:about="">
        <dc:format>image/svg+xml</dc:format>
        <dc:type
           rdf:resource="http://purl.org/dc/dcmitype/StillImage" />
        <dc:title />
      </cc:Work>
    </rdf:RDF>
  </metadata>
  <g
     inkscape:label="Layer 1"
     inkscape:groupmode="layer"
     id="layer1">
    <path
       style="fill:none;fill-rule:evenodd;stroke:#000000;stroke-width:1px;stroke-linecap:butt;stroke-linejoin:miter;stroke-opacity:1"
       d="m 257.24162,827.00186 -82.58824,1 c 0,0 -12.7279,-14.69458 -55.73656,-15.07106 -164.536098,10.27185 -144.650592,232.8085 -7.54594,237.4648 C 178.63547,1052.5712 201,1018.3622 201,1018.3622 l -1.34662,34 40,0 -0.15876,-184.04821 17.747,-0.31213 z"
       id="path9071"
       inkscape:connector-curvature="0"
       sodipodi:nodetypes="cccccccccc" />
    <path
       style="fill:none;fill-rule:evenodd;stroke:#000000;stroke-width:1px;stroke-linecap:butt;stroke-linejoin:miter;stroke-opacity:1"
       d="m 118,850.3622 c 104.53318,-0.56164 112.41469,159.98 3,163 -103.451048,2.8554 -107.533175,-162.43836 -3,-163 z"
       id="path9073"
       inkscape:connector-curvature="0"
       sodipodi:nodetypes="zsz" />
    <path
       style="opacity:1;fill:#000000;stroke:none;stroke-width:40;stroke-miterlimit:4;stroke-dasharray:none"
       d="m 200.79097,1047.8828 c 0.48453,-4.9093 1.42197,-31.25 1.11216,-31.25 -0.13167,0 -3.37437,3.0644 -7.20599,6.8099 -11.47275,11.2148 -27.40186,19.035 -47.46659,23.3029 -14.97393,3.1851 -43.26303,3.2528 -56.689922,0.1356 -27.644663,-6.418 -50.269433,-21.9731 -66.107967,-45.4508 C 3.1449652,969.87522 -2.7441882,927.21556 9.2465392,891.42564 22.812689,850.93339 54.446099,824.86206 100.73055,816.0272 c 23.87584,-4.55746 57.17129,0.25282 70.12186,10.1307 l 3.55929,2.71481 40.90943,-0.40422 40.90942,-0.40423 0,19.15341 0,19.1534 -3.75,0.61984 c -2.0625,0.34091 -6.1125,0.62478 -9,0.63084 l -5.25,0.011 0,92 0,92.00005 -18.90484,0 -18.90485,0 0.37011,-3.75 z m -58.09171,-36.717 c 28.87595,-7.325 49.87817,-29.39762 55.95219,-58.80383 0.92265,-4.46684 1.5791,-12.59764 1.5791,-19.55884 0,-24.91872 -9.13162,-46.88827 -25.9206,-62.36177 -16.53996,-15.24399 -35.72555,-21.71814 -60.91996,-20.55735 -29.879088,1.37662 -52.31688,16.32852 -64.689355,43.10712 -5.69392,12.32374 -7.826505,22.937 -7.764488,38.64162 0.04376,11.0813 0.501172,15.20205 2.553048,23 8.732393,33.1866 31.079451,54.02265 63.241355,58.96535 9.06706,1.3935 25.18326,0.3036 35.96871,-2.4323 z"
       id="path9075"
       inkscape:connector-curvature="0" />
  </g>
</svg>
