<?xml version="1.0" encoding="UTF-8" standalone="no"?>
<!-- Created with Inkscape (http://www.inkscape.org/) -->

<svg
   xmlns:dc="http://purl.org/dc/elements/1.1/"
   xmlns:cc="http://creativecommons.org/ns#"
   xmlns:rdf="http://www.w3.org/1999/02/22-rdf-syntax-ns#"
   xmlns:svg="http://www.w3.org/2000/svg"
   xmlns="http://www.w3.org/2000/svg"
   xmlns:sodipodi="http://sodipodi.sourceforge.net/DTD/sodipodi-0.dtd"
   xmlns:inkscape="http://www.inkscape.org/namespaces/inkscape"
   width="210mm"
   height="297mm"
   viewBox="0 0 744.09448819 1052.3622047"
   id="svg6163"
   version="1.1"
   inkscape:version="0.91 r13725"
   sodipodi:docname="letter-f.svg">
  <defs
     id="defs6165" />
  <sodipodi:namedview
     id="base"
     pagecolor="#ffffff"
     bordercolor="#666666"
     borderopacity="1.0"
     inkscape:pageopacity="0.0"
     inkscape:pageshadow="2"
     inkscape:zoom="1.0623047"
     inkscape:cx="64.825336"
     inkscape:cy="166.99393"
     inkscape:document-units="px"
     inkscape:current-layer="layer1"
     showgrid="false"
     showborder="false"
     inkscape:window-width="1920"
     inkscape:window-height="1044"
     inkscape:window-x="0"
     inkscape:window-y="0"
     inkscape:window-maximized="1" />
  <metadata
     id="metadata6168">
    <rdf:RDF>
      <cc:Work
         rdf:about="">
        <dc:format>image/svg+xml</dc:format>
        <dc:type
           rdf:resource="http://purl.org/dc/dcmitype/StillImage" />
        <dc:title></dc:title>
      </cc:Work>
    </rdf:RDF>
  </metadata>
  <g
     inkscape:label="Layer 1"
     inkscape:groupmode="layer"
     id="layer1">
    <path
       style="fill:none;fill-rule:evenodd;stroke:#000000;stroke-width:1px;stroke-linecap:butt;stroke-linejoin:miter;stroke-opacity:1"
       d="m 0.5,827.56908 0,41 38.5579,-0.16539 0.9453,183.45851 40,0 -0.7497,-182.79957 40.2465,-0.49355 0,-41 -39.8272,0.4858 c 0,0 -1.0787,-51.96617 47.6837,-72.33073 0.608,-0.25394 0.6589,-41.51351 0.6589,-41.51351 0,0 -89.0249,25.72239 -89.0249,111.1853 0,2.63577 -38.4905,2.17314 -38.4905,2.17314 z"
       id="path6152"
       inkscape:connector-curvature="0"
       sodipodi:nodetypes="cccccccccscsc" />
    <path
       style="opacity:1;fill:#000000;stroke:none;stroke-width:40;stroke-miterlimit:4;stroke-dasharray:none"
       d="m 40.97197,1034.2427 c -0.33878,-8.9311 -0.61726,-50.02096 -0.618843,-91.31091 l -0.0029,-75.07262 -19.297665,0 -19.2976648,0 0,-19.65507 0,-19.65506 17.7817548,-0.38247 c 12.025415,-0.25866 18.226527,-0.7516 19.155686,-1.52273 0.957706,-0.79482 1.553618,-4.06411 1.967063,-10.79166 1.999276,-32.53206 20.117587,-61.90118 50.832059,-82.39689 9.551209,-6.37351 21.156769,-12.51414 30.520839,-16.14893 l 4.94208,-1.91834 0,19.69419 0,19.69419 -5.88343,2.97164 c -21.199644,10.70764 -35.339284,30.11063 -40.638514,55.76585 -0.817783,3.95913 -1.486878,9.15383 -1.486878,11.54376 l 0,4.34532 19.76834,-0.67618 19.768342,-0.67619 0,19.90429 0,19.90428 -20.110325,0 -20.11033,0 0.478838,91.3109 0.478837,91.31093 -18.815672,0 -18.815673,0 -0.615965,-16.2383 z"
       id="path6717"
       inkscape:connector-curvature="0" />
  </g>
</svg>
