<?xml version="1.0" encoding="UTF-8" standalone="no"?>
<!-- Created with Inkscape (http://www.inkscape.org/) -->

<svg
   xmlns:dc="http://purl.org/dc/elements/1.1/"
   xmlns:cc="http://creativecommons.org/ns#"
   xmlns:rdf="http://www.w3.org/1999/02/22-rdf-syntax-ns#"
   xmlns:svg="http://www.w3.org/2000/svg"
   xmlns="http://www.w3.org/2000/svg"
   xmlns:sodipodi="http://sodipodi.sourceforge.net/DTD/sodipodi-0.dtd"
   xmlns:inkscape="http://www.inkscape.org/namespaces/inkscape"
   width="210mm"
   height="297mm"
   viewBox="0 0 744.09448819 1052.3622047"
   id="svg4307"
   version="1.1"
   inkscape:version="0.91 r13725"
   sodipodi:docname="letter-h.svg">
  <defs
     id="defs4309" />
  <sodipodi:namedview
     id="base"
     pagecolor="#ffffff"
     bordercolor="#666666"
     borderopacity="1.0"
     inkscape:pageopacity="0.0"
     inkscape:pageshadow="2"
     inkscape:zoom="1.0623047"
     inkscape:cx="222.0307"
     inkscape:cy="30.498253"
     inkscape:document-units="px"
     inkscape:current-layer="layer1"
     showgrid="false"
     showborder="false"
     inkscape:window-width="1920"
     inkscape:window-height="1044"
     inkscape:window-x="0"
     inkscape:window-y="0"
     inkscape:window-maximized="1" />
  <metadata
     id="metadata4312">
    <rdf:RDF>
      <cc:Work
         rdf:about="">
        <dc:format>image/svg+xml</dc:format>
        <dc:type
           rdf:resource="http://purl.org/dc/dcmitype/StillImage" />
        <dc:title></dc:title>
      </cc:Work>
    </rdf:RDF>
  </metadata>
  <g
     inkscape:label="Layer 1"
     inkscape:groupmode="layer"
     id="layer1">
    <path
       style="display:inline;fill:none;fill-rule:evenodd;stroke:#000000;stroke-width:1px;stroke-linecap:butt;stroke-linejoin:miter;stroke-opacity:1"
       d="m 40.0034,708.8622 40,0 0.5682,118.02798 c 0,0 27.6192,-0.51535 39.0409,0.1647 119.5081,7.11546 119.9629,117 119.9629,117 l 0,107.76782 -40,0 -0.024,-107.76782 c 0,0 -5.9751,-77.4858 -80.0517,-77.4858 -5e-4,0 -39.5875,1.83461 -39.5875,1.83461 l 0.091,183.45851 -40,0 0.3726,-184.11745 -39.8758,0.82433 0,-41 38.5579,-0.6789 0.9453,-118.02798"
       id="path5511"
       inkscape:connector-curvature="0"
       sodipodi:nodetypes="cccsccccscccccccc" />
    <path
       style="opacity:1;fill:#000000;stroke:none;stroke-width:40;stroke-miterlimit:4;stroke-dasharray:none"
       d="m 41.291598,958.55512 0,-91.92586 -19.76834,0.53946 -19.7683398,0.53945 0,-19.69283 0,-19.69285 17.1796288,-0.0128 c 9.448796,-0.008 18.132745,-0.26829 19.297665,-0.58047 l 2.118036,-0.56761 0.0042,-48.13437 c 0.0024,-26.47396 0.278926,-52.9 0.614547,-58.72461 l 0.610221,-10.59018 18.683164,0 18.683162,0 0.0014,24.23975 c 7.65e-4,13.33187 0.281285,39.80732 0.623379,58.83435 l 0.621988,34.59459 14.67355,0.002 c 35.194303,0.006 57.481013,3.76216 77.679093,13.09371 28.0054,12.93852 48.92882,36.92163 59.32079,67.99538 6.37323,19.05706 6.41297,19.54445 6.84,83.88013 l 0.38582,58.12836 -19.32144,0 -19.32146,0 -0.29149,-57.18701 c -0.2872,-56.33987 -0.32343,-57.29808 -2.44705,-64.71738 -9.82787,-34.33563 -30.93144,-55.56505 -60.8716,-61.23458 -7.20751,-1.36483 -11.84449,-1.50904 -31.06453,-0.9661 -12.425814,0.35101 -23.545505,0.87434 -24.710425,1.16297 l -2.118037,0.52477 0,91.20886 0,91.20887 -18.82699,0 -18.82699,0 0,-91.92588 z"
       id="path5543"
       inkscape:connector-curvature="0" />
  </g>
</svg>
